M48
;Layer_Color=9474304
;FILE_FORMAT=4:3
METRIC
;TYPE=PLATED
T1F00S00C0.500
T2F00S00C0.711
T3F00S00C0.800
T4F00S00C0.900
T6F00S00C1.300
T7F00S00C3.200
%
T01
X0025600Y0003700
Y0006700
Y0009700
Y0012700
X0028600Y0001500
X0030100
X0031600
X0033100
X0034600
X0036100
X0037600
X0039100
X0040600
X0042100
X0043600
X0045100
X0046600
X0048100
X0049600
X0051100
X0052600
X0045300Y0008200
Y0011200
Y0014200
X0039300
Y0011200
Y0008200
X0056600Y0009700
Y0012700
Y0003700
X0057100Y0001500
X0058600
X0060100
X0061600
X0063100
X0064600
X0066100
X0067600
X0069100
X0070600
X0072100
X0073600
X0075100
X0076600
X0078100
X0079600
X0081100
X0082600
X0084100
X0085600
X0087100
X0088600
X0090100
X0091600
X0093100
X0087600Y0009700
Y0012700
X0076300Y0014200
Y0011200
Y0008200
X0070300
Y0011200
Y0014200
X0055600Y0001500
X0054100
X0094600
X0096100
X0097600
X0099100
X0100600
X0102100
X0103600
X0105100
X0106600
X0108100
X0109600
X0111100
X0112600
X0114100
X0120500Y0008200
Y0009700
Y0011200
Y0012700
Y0014200
X0107100
Y0011200
Y0008200
X0101100
Y0011200
Y0014200
Y0017200
Y0020200
X0107100
Y0017200
X0120500
Y0018700
Y0020200
Y0021700
Y0023200
Y0024700
Y0026200
Y0027700
Y0029200
Y0030700
Y0032200
Y0033700
Y0035200
Y0036700
Y0038200
Y0039700
Y0041200
Y0042700
Y0044200
Y0045700
Y0047200
Y0048700
Y0050200
Y0051700
X0116000Y0046200
X0108400
X0101500
X0097600
X0094800Y0041250
X0093800
X0095500Y0034500
X0095500Y0033500
X0100600Y0031800
X0100400Y0035700
Y0038100
X0104300Y0035000
Y0034000
X0100000Y0026200
X0096200
X0094300Y0051100
X0120500Y0015700
X0087600Y0015700
Y0018700
Y0021700
Y0024700
Y0027700
Y0030700
Y0033700
Y0036700
X0084400Y0038200
X0081400
X0078400
X0078400Y0046200
X0075400
X0069400
X0066400
X0060400
X0057400
X0054400
X0056600Y0048700
Y0051700
X0063500Y0051200
X0063000Y0041250
X0064000
X0059400Y0041400
X0057200
X0056200
X0054400Y0038200
X0056600Y0036700
Y0033700
Y0030700
Y0027700
Y0024700
Y0021700
Y0018700
Y0015700
X0070300Y0017200
Y0020200
X0076300
Y0017200
X0069100Y0026100
X0065300
X0064700Y0033500
X0064700Y0034500
X0062300Y0034500
X0062300Y0033500
X0062100Y0031500
X0069800Y0031800
X0069600Y0035500
Y0038000
Y0040600
X0073500Y0035000
Y0034000
X0093100Y0033500
X0093100Y0034500
X0092900Y0031500
X0090400Y0046200
X0087400
X0087600Y0048700
Y0051700
X0084400Y0046200
X0048400
X0045400
X0039400
X0038900Y0037700
Y0035200
X0038800Y0031800
X0042500Y0034000
Y0035000
X0048400Y0038200
X0051400
X0033700Y0034500
X0033700Y0033500
X0031300Y0033500
X0031300Y0034500
X0031100Y0031500
X0025600Y0030700
Y0027700
Y0024700
Y0021700
Y0018700
Y0015700
X0020600
Y0018700
Y0021700
Y0024700
Y0027700
Y0030700
Y0033700
Y0036700
Y0039700
X0025600
Y0036700
Y0033700
Y0045700
Y0048700
X0023600Y0048300
X0022500
Y0049500
X0021400
X0023600
Y0047100
X0023200Y0052600
Y0053700
X0024400
Y0052600
X0022000
Y0053700
X0017700Y0053000
X0016600
X0015500
Y0051800
X0016600
X0015500Y0040700
X0032000Y0041250
X0033000
X0029100Y0044500
X0032900Y0052100
X0034400Y0026300
X0038200Y0025600
X0039300Y0020200
Y0017200
X0045300
Y0020200
X0013900Y0026100
Y0027400
X0007100Y0024200
X0016600Y0054200
X0017700
Y0055400
X0016600
Y0056600
X0028600Y0058500
X0030100
X0031600
X0033100
X0034600
X0036100
X0037600
X0039100
X0040600
X0042100
X0043600
X0045100
X0046600
X0048100
X0049600
X0051100
X0052600
X0042500Y0055000
X0056600Y0054700
X0057100Y0058500
X0058600
X0060100
X0061600
X0063100
X0064600
X0066100
X0067600
X0069100
X0070600
X0072100
X0073600
X0075100
X0076600
X0078100
X0079600
X0081100
X0082600
X0084100
X0085600
X0087100
X0088600
X0090100
X0091600
X0093100
X0087600Y0054700
X0073500Y0055000
X0055600Y0058500
X0054100
X0094600
X0096100
X0097600
X0099100
X0100600
X0102100
X0103600
X0105100
X0106600
X0108100
X0109600
X0111100
X0112600
X0114100
X0104300Y0055000
T02
X0101900Y0022300
X0103665
X0106700
X0096100Y0028700
X0075900Y0022300
X0072865
X0071100
X0065300Y0028700
X0044900Y0022300
X0041865
X0040100
X0034300Y0028700
T03
X0098210Y0017250
Y0019790
Y0022330
Y0024870
Y0027410
Y0029950
X0090590
Y0027410
Y0024870
Y0022330
Y0019790
Y0017250
X0067410
Y0019790
Y0022330
Y0024870
Y0027410
Y0029950
X0059790
Y0027410
Y0024870
Y0022330
Y0019790
Y0017250
X0036410
Y0019790
Y0022330
Y0024870
Y0027410
Y0029950
X0028790
Y0027410
Y0024870
Y0022330
Y0019790
Y0017250
T04
X0004200Y0018900
Y0021400
Y0023900
X0010200
Y0021400
Y0018900
T06
X0039800Y0004500
X0044800
X0070800
X0075800
X0101600
X0106600
X0050000Y0055500
X0045000
X0040000
X0035000
X0030000
X0061000
X0066000
X0071000
X0076000
X0081000
X0091800
X0096800
X0101800
X0106800
X0111800
T07
X0004000Y0004000
X0118000
X0004000Y0056000
X0118000
M30
