G04*
G04 #@! TF.GenerationSoftware,Altium Limited,Altium Designer,18.0.12 (696)*
G04*
G04 Layer_Color=16711935*
%FSAX43Y43*%
%MOMM*%
G71*
G01*
G75*
%ADD19R,1.203X1.203*%
%ADD21R,1.503X1.703*%
%ADD30R,1.103X1.203*%
%ADD34C,1.727*%
%ADD35C,2.703*%
%ADD36C,1.803*%
%ADD37O,2.303X4.703*%
%ADD38O,4.703X2.303*%
%ADD39C,6.800*%
D19*
X0101900Y0023700D02*
D03*
X0103500D02*
D03*
X0105100D02*
D03*
X0106700D02*
D03*
X0074300D02*
D03*
X0075900D02*
D03*
X0071100D02*
D03*
X0072700D02*
D03*
X0044900D02*
D03*
X0043300D02*
D03*
X0041700D02*
D03*
X0040100D02*
D03*
D21*
X0101650Y0025500D02*
D03*
X0103350D02*
D03*
X0105250D02*
D03*
X0106950D02*
D03*
X0074450D02*
D03*
X0076150D02*
D03*
X0070850D02*
D03*
X0072550D02*
D03*
X0045150D02*
D03*
X0043450D02*
D03*
X0041550D02*
D03*
X0039850D02*
D03*
D30*
X0094250Y0017200D02*
D03*
X0092550D02*
D03*
X0094250Y0019800D02*
D03*
X0092550D02*
D03*
X0094250Y0022300D02*
D03*
X0092550D02*
D03*
X0094250Y0024900D02*
D03*
X0092550D02*
D03*
X0094250Y0027400D02*
D03*
X0092550D02*
D03*
X0094250Y0030000D02*
D03*
X0092550D02*
D03*
X0063450D02*
D03*
X0061750D02*
D03*
X0063450Y0027400D02*
D03*
X0061750D02*
D03*
X0063450Y0024900D02*
D03*
X0061750D02*
D03*
X0063450Y0022300D02*
D03*
X0061750D02*
D03*
X0063450Y0019800D02*
D03*
X0061750D02*
D03*
X0063450Y0017200D02*
D03*
X0061750D02*
D03*
X0030750Y0022300D02*
D03*
X0032450D02*
D03*
X0030750Y0019800D02*
D03*
X0032450D02*
D03*
X0030750Y0030000D02*
D03*
X0032450D02*
D03*
X0030750Y0017200D02*
D03*
X0032450D02*
D03*
X0030750Y0024900D02*
D03*
X0032450D02*
D03*
X0030750Y0027400D02*
D03*
X0032450D02*
D03*
D34*
X0090590Y0029950D02*
D03*
Y0027410D02*
D03*
Y0024870D02*
D03*
Y0022330D02*
D03*
Y0019790D02*
D03*
Y0017250D02*
D03*
X0098210D02*
D03*
Y0019790D02*
D03*
Y0022330D02*
D03*
Y0024870D02*
D03*
Y0027410D02*
D03*
Y0029950D02*
D03*
X0059790D02*
D03*
Y0027410D02*
D03*
Y0024870D02*
D03*
Y0022330D02*
D03*
Y0019790D02*
D03*
Y0017250D02*
D03*
X0067410D02*
D03*
Y0019790D02*
D03*
Y0022330D02*
D03*
Y0024870D02*
D03*
Y0027410D02*
D03*
Y0029950D02*
D03*
X0036410D02*
D03*
Y0027410D02*
D03*
Y0024870D02*
D03*
Y0022330D02*
D03*
Y0019790D02*
D03*
Y0017250D02*
D03*
X0028790D02*
D03*
Y0019790D02*
D03*
Y0022330D02*
D03*
Y0024870D02*
D03*
Y0027410D02*
D03*
Y0029950D02*
D03*
D35*
X0096800Y0055500D02*
D03*
X0091800D02*
D03*
X0101600Y0004500D02*
D03*
X0106600D02*
D03*
X0111800Y0055500D02*
D03*
X0106800D02*
D03*
X0101800D02*
D03*
X0081000D02*
D03*
X0076000D02*
D03*
X0071000D02*
D03*
X0070800Y0004500D02*
D03*
X0075800D02*
D03*
X0066000Y0055500D02*
D03*
X0061000D02*
D03*
X0040000D02*
D03*
X0045000D02*
D03*
X0050000D02*
D03*
X0030000D02*
D03*
X0035000D02*
D03*
X0044800Y0004500D02*
D03*
X0039800D02*
D03*
D36*
X0004200Y0023900D02*
D03*
Y0021400D02*
D03*
Y0018900D02*
D03*
X0010200Y0023900D02*
D03*
Y0021400D02*
D03*
Y0018900D02*
D03*
D37*
X0007439Y0012573D02*
D03*
X0013589D02*
D03*
D38*
X0010739Y0007573D02*
D03*
D39*
X0004000Y0004000D02*
D03*
Y0056000D02*
D03*
X0118000D02*
D03*
Y0004000D02*
D03*
M02*
