G04*
G04 #@! TF.GenerationSoftware,Altium Limited,Altium Designer,18.0.12 (696)*
G04*
G04 Layer_Color=8388736*
%FSAX43Y43*%
%MOMM*%
G71*
G01*
G75*
%ADD15O,0.803X2.403*%
%ADD16C,1.203*%
%ADD17R,1.203X1.103*%
%ADD18R,1.203X1.203*%
%ADD19R,1.203X1.203*%
%ADD20R,1.703X1.503*%
%ADD21R,1.503X1.703*%
%ADD22R,2.403X1.203*%
%ADD23R,2.403X3.503*%
%ADD24R,3.603X1.803*%
%ADD25R,2.203X1.403*%
%ADD26R,4.203X1.803*%
%ADD27O,0.803X1.653*%
%ADD28R,0.803X1.703*%
%ADD29R,1.103X1.003*%
%ADD30R,1.103X1.203*%
%ADD31R,1.103X0.703*%
%ADD32R,1.113X1.423*%
%ADD33R,1.440X1.240*%
%ADD34C,1.727*%
%ADD35C,2.703*%
%ADD36C,1.803*%
%ADD37O,2.303X4.703*%
%ADD38O,4.703X2.303*%
%ADD39C,6.800*%
D15*
X0102395Y0025100D02*
D03*
X0103665D02*
D03*
X0104935D02*
D03*
X0106205D02*
D03*
X0102395Y0029900D02*
D03*
X0103665D02*
D03*
X0104935D02*
D03*
X0106205D02*
D03*
X0071595Y0025100D02*
D03*
X0072865D02*
D03*
X0074135D02*
D03*
X0075405D02*
D03*
X0071595Y0029900D02*
D03*
X0072865D02*
D03*
X0074135D02*
D03*
X0075405D02*
D03*
X0040595Y0025100D02*
D03*
X0041865D02*
D03*
X0043135D02*
D03*
X0044405D02*
D03*
X0040595Y0029900D02*
D03*
X0041865D02*
D03*
X0043135D02*
D03*
X0044405D02*
D03*
D16*
X0103500Y0020200D02*
D03*
X0102400Y0032900D02*
D03*
X0105100Y0020200D02*
D03*
X0106300Y0032900D02*
D03*
X0091900Y0041100D02*
D03*
X0096700D02*
D03*
X0065900D02*
D03*
X0061100D02*
D03*
X0075500Y0032900D02*
D03*
X0074300Y0020200D02*
D03*
X0071600Y0032900D02*
D03*
X0072700Y0020200D02*
D03*
X0030100Y0041100D02*
D03*
X0043300Y0020200D02*
D03*
X0041700D02*
D03*
X0044500Y0032900D02*
D03*
X0040600D02*
D03*
X0034900Y0041100D02*
D03*
X0011200Y0050800D02*
D03*
Y0048300D02*
D03*
X0018415Y0040513D02*
D03*
X0019050Y0049657D02*
D03*
X0021082Y0009017D02*
D03*
Y0013081D02*
D03*
X0013970Y0004953D02*
D03*
D17*
X0103500Y0042950D02*
D03*
Y0041250D02*
D03*
X0105100Y0042950D02*
D03*
Y0041250D02*
D03*
X0074300Y0042950D02*
D03*
Y0041250D02*
D03*
X0072700Y0042950D02*
D03*
Y0041250D02*
D03*
X0041700D02*
D03*
Y0042950D02*
D03*
X0043300Y0041250D02*
D03*
Y0042950D02*
D03*
X0020066Y0045378D02*
D03*
Y0047078D02*
D03*
Y0042076D02*
D03*
Y0043776D02*
D03*
X0015400Y0029450D02*
D03*
Y0031150D02*
D03*
D18*
X0111800Y0046500D02*
D03*
Y0044900D02*
D03*
X0090900Y0037700D02*
D03*
Y0036100D02*
D03*
X0097700Y0037700D02*
D03*
Y0036100D02*
D03*
X0113400Y0044900D02*
D03*
Y0046500D02*
D03*
X0082600Y0044900D02*
D03*
Y0046500D02*
D03*
X0066900Y0037700D02*
D03*
Y0036100D02*
D03*
X0060100Y0037700D02*
D03*
Y0036100D02*
D03*
X0081000Y0046500D02*
D03*
Y0044900D02*
D03*
X0051600Y0046500D02*
D03*
Y0044900D02*
D03*
X0050000Y0044900D02*
D03*
Y0046500D02*
D03*
X0035900Y0036100D02*
D03*
Y0037700D02*
D03*
X0029100Y0036100D02*
D03*
Y0037700D02*
D03*
D19*
X0103500Y0036200D02*
D03*
X0101900D02*
D03*
X0103500Y0038100D02*
D03*
X0105100D02*
D03*
X0106700Y0036200D02*
D03*
X0105100D02*
D03*
X0091900Y0039400D02*
D03*
X0093500D02*
D03*
Y0045500D02*
D03*
X0095100D02*
D03*
Y0039400D02*
D03*
X0096700D02*
D03*
X0064300D02*
D03*
X0065900D02*
D03*
X0062700Y0045500D02*
D03*
X0064300D02*
D03*
X0061100Y0039400D02*
D03*
X0062700D02*
D03*
X0075900Y0036200D02*
D03*
X0074300D02*
D03*
X0072700Y0038100D02*
D03*
X0074300D02*
D03*
X0072700Y0036200D02*
D03*
X0071100D02*
D03*
X0043300D02*
D03*
X0044900D02*
D03*
X0040100D02*
D03*
X0041700D02*
D03*
X0043300Y0038100D02*
D03*
X0041700D02*
D03*
X0031700Y0039400D02*
D03*
X0030100D02*
D03*
X0034900D02*
D03*
X0033300D02*
D03*
Y0045500D02*
D03*
X0031700D02*
D03*
X0010452Y0055626D02*
D03*
X0008852D02*
D03*
D20*
X0093100Y0035850D02*
D03*
Y0037550D02*
D03*
X0095500Y0037550D02*
D03*
Y0035850D02*
D03*
X0064700Y0037550D02*
D03*
Y0035850D02*
D03*
X0062300Y0035850D02*
D03*
Y0037550D02*
D03*
X0031300D02*
D03*
Y0035850D02*
D03*
X0033700Y0035850D02*
D03*
Y0037550D02*
D03*
D21*
X0093450Y0043600D02*
D03*
X0095150D02*
D03*
X0062650D02*
D03*
X0064350D02*
D03*
X0033350D02*
D03*
X0031650D02*
D03*
X0010502Y0053721D02*
D03*
X0008802D02*
D03*
X0014350Y0018200D02*
D03*
X0012650D02*
D03*
D22*
X0010509Y0031984D02*
D03*
Y0034284D02*
D03*
Y0036584D02*
D03*
D23*
X0004509Y0034284D02*
D03*
D24*
X0017907Y0009049D02*
D03*
Y0013049D02*
D03*
D25*
X0009211Y0050800D02*
D03*
Y0048260D02*
D03*
X0001711Y0050800D02*
D03*
Y0048260D02*
D03*
D26*
X0020772Y0055372D02*
D03*
X0013772D02*
D03*
X0002723Y0042164D02*
D03*
X0009723D02*
D03*
D27*
X0018415Y0047810D02*
D03*
X0017145D02*
D03*
X0015875D02*
D03*
X0014605D02*
D03*
X0018415Y0042360D02*
D03*
X0017145D02*
D03*
X0015875D02*
D03*
X0014605D02*
D03*
D28*
X0017076Y0031744D02*
D03*
X0018976D02*
D03*
X0018026Y0033644D02*
D03*
D29*
X0015400Y0032475D02*
D03*
Y0034125D02*
D03*
D30*
X0008850Y0026300D02*
D03*
X0010550D02*
D03*
X0012650Y0021400D02*
D03*
X0014350D02*
D03*
X0017237Y0029839D02*
D03*
X0018937D02*
D03*
X0005750Y0029900D02*
D03*
X0004050D02*
D03*
X0007250D02*
D03*
X0008950D02*
D03*
D31*
X0017000Y0027300D02*
D03*
X0015200Y0026650D02*
D03*
Y0027950D02*
D03*
D32*
X0010541Y0028061D02*
D03*
X0007271D02*
D03*
D33*
X0016891Y0014783D02*
D03*
Y0017983D02*
D03*
D34*
X0090590Y0029950D02*
D03*
Y0027410D02*
D03*
Y0024870D02*
D03*
Y0022330D02*
D03*
Y0019790D02*
D03*
Y0017250D02*
D03*
X0098210D02*
D03*
Y0019790D02*
D03*
Y0022330D02*
D03*
Y0024870D02*
D03*
Y0027410D02*
D03*
Y0029950D02*
D03*
X0059790D02*
D03*
Y0027410D02*
D03*
Y0024870D02*
D03*
Y0022330D02*
D03*
Y0019790D02*
D03*
Y0017250D02*
D03*
X0067410D02*
D03*
Y0019790D02*
D03*
Y0022330D02*
D03*
Y0024870D02*
D03*
Y0027410D02*
D03*
Y0029950D02*
D03*
X0036410D02*
D03*
Y0027410D02*
D03*
Y0024870D02*
D03*
Y0022330D02*
D03*
Y0019790D02*
D03*
Y0017250D02*
D03*
X0028790D02*
D03*
Y0019790D02*
D03*
Y0022330D02*
D03*
Y0024870D02*
D03*
Y0027410D02*
D03*
Y0029950D02*
D03*
D35*
X0096800Y0055500D02*
D03*
X0091800D02*
D03*
X0101600Y0004500D02*
D03*
X0106600D02*
D03*
X0111800Y0055500D02*
D03*
X0106800D02*
D03*
X0101800D02*
D03*
X0081000D02*
D03*
X0076000D02*
D03*
X0071000D02*
D03*
X0070800Y0004500D02*
D03*
X0075800D02*
D03*
X0066000Y0055500D02*
D03*
X0061000D02*
D03*
X0040000D02*
D03*
X0045000D02*
D03*
X0050000D02*
D03*
X0030000D02*
D03*
X0035000D02*
D03*
X0044800Y0004500D02*
D03*
X0039800D02*
D03*
D36*
X0004200Y0023900D02*
D03*
Y0021400D02*
D03*
Y0018900D02*
D03*
X0010200Y0023900D02*
D03*
Y0021400D02*
D03*
Y0018900D02*
D03*
D37*
X0007439Y0012573D02*
D03*
X0013589D02*
D03*
D38*
X0010739Y0007573D02*
D03*
D39*
X0004000Y0004000D02*
D03*
Y0056000D02*
D03*
X0118000D02*
D03*
Y0004000D02*
D03*
M02*
