G04*
G04 #@! TF.GenerationSoftware,Altium Limited,Altium Designer,18.0.12 (696)*
G04*
G04 Layer_Physical_Order=2*
G04 Layer_Color=16711680*
%FSAX43Y43*%
%MOMM*%
G71*
G01*
G75*
%ADD12C,0.200*%
%ADD14C,0.254*%
%ADD41C,1.000*%
%ADD44R,1.000X1.000*%
%ADD46R,1.300X1.500*%
%ADD55R,0.900X1.000*%
%ADD60C,1.000*%
%ADD62C,0.500*%
%ADD63C,0.800*%
%ADD66C,1.524*%
%ADD67C,2.500*%
%ADD68C,1.600*%
%ADD69O,2.100X4.500*%
%ADD70O,4.500X2.100*%
%ADD71C,6.600*%
%ADD72C,1.270*%
G36*
X0115949Y0059200D02*
X0115760Y0059084D01*
X0115305Y0058695D01*
X0114916Y0058240D01*
X0114604Y0057730D01*
X0114375Y0057178D01*
X0114235Y0056596D01*
X0114208Y0056250D01*
X0118000D01*
Y0056000D01*
X0118250D01*
Y0052208D01*
X0118596Y0052235D01*
X0119178Y0052375D01*
X0119730Y0052604D01*
X0120240Y0052916D01*
X0120695Y0053305D01*
X0121084Y0053760D01*
X0121200Y0053949D01*
X0121500Y0053865D01*
Y0006135D01*
X0121200Y0006051D01*
X0121084Y0006240D01*
X0120695Y0006695D01*
X0120240Y0007084D01*
X0119730Y0007396D01*
X0119178Y0007625D01*
X0118596Y0007765D01*
X0118250Y0007792D01*
Y0004000D01*
X0118000D01*
Y0003750D01*
X0114208D01*
X0114235Y0003404D01*
X0114375Y0002822D01*
X0114604Y0002270D01*
X0114916Y0001760D01*
X0115305Y0001305D01*
X0115760Y0000916D01*
X0115949Y0000800D01*
X0115865Y0000500D01*
X0006135D01*
X0006051Y0000800D01*
X0006240Y0000916D01*
X0006695Y0001305D01*
X0007084Y0001760D01*
X0007396Y0002270D01*
X0007625Y0002822D01*
X0007765Y0003404D01*
X0007792Y0003750D01*
X0004000D01*
Y0004000D01*
X0003750D01*
Y0007792D01*
X0003404Y0007765D01*
X0002822Y0007625D01*
X0002270Y0007396D01*
X0001760Y0007084D01*
X0001305Y0006695D01*
X0000916Y0006240D01*
X0000800Y0006051D01*
X0000500Y0006135D01*
Y0053865D01*
X0000800Y0053949D01*
X0000916Y0053760D01*
X0001305Y0053305D01*
X0001760Y0052916D01*
X0002270Y0052604D01*
X0002822Y0052375D01*
X0003404Y0052235D01*
X0003750Y0052208D01*
Y0056000D01*
X0004000D01*
Y0056250D01*
X0007792D01*
X0007765Y0056596D01*
X0007625Y0057178D01*
X0007396Y0057730D01*
X0007084Y0058240D01*
X0006695Y0058695D01*
X0006240Y0059084D01*
X0006051Y0059200D01*
X0006135Y0059500D01*
X0115865D01*
X0115949Y0059200D01*
D02*
G37*
%LPC*%
G36*
X0111800Y0057258D02*
X0111457Y0057225D01*
X0111127Y0057125D01*
X0110823Y0056962D01*
X0110557Y0056743D01*
X0110338Y0056477D01*
X0110175Y0056173D01*
X0110075Y0055843D01*
X0110042Y0055500D01*
X0110075Y0055157D01*
X0110175Y0054827D01*
X0110338Y0054523D01*
X0110557Y0054257D01*
X0110823Y0054038D01*
X0111127Y0053875D01*
X0111457Y0053775D01*
X0111800Y0053742D01*
X0112143Y0053775D01*
X0112473Y0053875D01*
X0112777Y0054038D01*
X0113043Y0054257D01*
X0113262Y0054523D01*
X0113425Y0054827D01*
X0113525Y0055157D01*
X0113558Y0055500D01*
X0113525Y0055843D01*
X0113425Y0056173D01*
X0113262Y0056477D01*
X0113043Y0056743D01*
X0112777Y0056962D01*
X0112473Y0057125D01*
X0112143Y0057225D01*
X0111800Y0057258D01*
D02*
G37*
G36*
X0106800D02*
X0106457Y0057225D01*
X0106127Y0057125D01*
X0105823Y0056962D01*
X0105557Y0056743D01*
X0105338Y0056477D01*
X0105175Y0056173D01*
X0105075Y0055843D01*
X0105042Y0055500D01*
X0105075Y0055157D01*
X0105175Y0054827D01*
X0105338Y0054523D01*
X0105557Y0054257D01*
X0105823Y0054038D01*
X0106127Y0053875D01*
X0106457Y0053775D01*
X0106800Y0053742D01*
X0107143Y0053775D01*
X0107473Y0053875D01*
X0107777Y0054038D01*
X0108043Y0054257D01*
X0108262Y0054523D01*
X0108425Y0054827D01*
X0108525Y0055157D01*
X0108558Y0055500D01*
X0108525Y0055843D01*
X0108425Y0056173D01*
X0108262Y0056477D01*
X0108043Y0056743D01*
X0107777Y0056962D01*
X0107473Y0057125D01*
X0107143Y0057225D01*
X0106800Y0057258D01*
D02*
G37*
G36*
X0101800D02*
X0101457Y0057225D01*
X0101127Y0057125D01*
X0100823Y0056962D01*
X0100557Y0056743D01*
X0100338Y0056477D01*
X0100175Y0056173D01*
X0100075Y0055843D01*
X0100042Y0055500D01*
X0100075Y0055157D01*
X0100175Y0054827D01*
X0100338Y0054523D01*
X0100557Y0054257D01*
X0100823Y0054038D01*
X0101127Y0053875D01*
X0101457Y0053775D01*
X0101800Y0053742D01*
X0102143Y0053775D01*
X0102473Y0053875D01*
X0102777Y0054038D01*
X0103043Y0054257D01*
X0103262Y0054523D01*
X0103425Y0054827D01*
X0103525Y0055157D01*
X0103558Y0055500D01*
X0103525Y0055843D01*
X0103425Y0056173D01*
X0103262Y0056477D01*
X0103043Y0056743D01*
X0102777Y0056962D01*
X0102473Y0057125D01*
X0102143Y0057225D01*
X0101800Y0057258D01*
D02*
G37*
G36*
X0096800D02*
X0096457Y0057225D01*
X0096127Y0057125D01*
X0095823Y0056962D01*
X0095557Y0056743D01*
X0095338Y0056477D01*
X0095175Y0056173D01*
X0095075Y0055843D01*
X0095042Y0055500D01*
X0095075Y0055157D01*
X0095175Y0054827D01*
X0095338Y0054523D01*
X0095557Y0054257D01*
X0095823Y0054038D01*
X0096127Y0053875D01*
X0096457Y0053775D01*
X0096800Y0053742D01*
X0097143Y0053775D01*
X0097473Y0053875D01*
X0097777Y0054038D01*
X0098043Y0054257D01*
X0098262Y0054523D01*
X0098425Y0054827D01*
X0098525Y0055157D01*
X0098558Y0055500D01*
X0098525Y0055843D01*
X0098425Y0056173D01*
X0098262Y0056477D01*
X0098043Y0056743D01*
X0097777Y0056962D01*
X0097473Y0057125D01*
X0097143Y0057225D01*
X0096800Y0057258D01*
D02*
G37*
G36*
X0091800D02*
X0091457Y0057225D01*
X0091127Y0057125D01*
X0090823Y0056962D01*
X0090557Y0056743D01*
X0090338Y0056477D01*
X0090175Y0056173D01*
X0090075Y0055843D01*
X0090042Y0055500D01*
X0090075Y0055157D01*
X0090175Y0054827D01*
X0090338Y0054523D01*
X0090557Y0054257D01*
X0090823Y0054038D01*
X0091127Y0053875D01*
X0091457Y0053775D01*
X0091800Y0053742D01*
X0092143Y0053775D01*
X0092473Y0053875D01*
X0092777Y0054038D01*
X0093043Y0054257D01*
X0093262Y0054523D01*
X0093425Y0054827D01*
X0093525Y0055157D01*
X0093558Y0055500D01*
X0093525Y0055843D01*
X0093425Y0056173D01*
X0093262Y0056477D01*
X0093043Y0056743D01*
X0092777Y0056962D01*
X0092473Y0057125D01*
X0092143Y0057225D01*
X0091800Y0057258D01*
D02*
G37*
G36*
X0081000D02*
X0080657Y0057225D01*
X0080327Y0057125D01*
X0080023Y0056962D01*
X0079757Y0056743D01*
X0079538Y0056477D01*
X0079375Y0056173D01*
X0079275Y0055843D01*
X0079242Y0055500D01*
X0079275Y0055157D01*
X0079375Y0054827D01*
X0079538Y0054523D01*
X0079757Y0054257D01*
X0080023Y0054038D01*
X0080327Y0053875D01*
X0080657Y0053775D01*
X0081000Y0053742D01*
X0081343Y0053775D01*
X0081673Y0053875D01*
X0081977Y0054038D01*
X0082243Y0054257D01*
X0082462Y0054523D01*
X0082625Y0054827D01*
X0082725Y0055157D01*
X0082758Y0055500D01*
X0082725Y0055843D01*
X0082625Y0056173D01*
X0082462Y0056477D01*
X0082243Y0056743D01*
X0081977Y0056962D01*
X0081673Y0057125D01*
X0081343Y0057225D01*
X0081000Y0057258D01*
D02*
G37*
G36*
X0076000D02*
X0075657Y0057225D01*
X0075327Y0057125D01*
X0075023Y0056962D01*
X0074757Y0056743D01*
X0074538Y0056477D01*
X0074375Y0056173D01*
X0074275Y0055843D01*
X0074242Y0055500D01*
X0074275Y0055157D01*
X0074375Y0054827D01*
X0074538Y0054523D01*
X0074757Y0054257D01*
X0075023Y0054038D01*
X0075327Y0053875D01*
X0075657Y0053775D01*
X0076000Y0053742D01*
X0076343Y0053775D01*
X0076673Y0053875D01*
X0076977Y0054038D01*
X0077243Y0054257D01*
X0077462Y0054523D01*
X0077625Y0054827D01*
X0077725Y0055157D01*
X0077758Y0055500D01*
X0077725Y0055843D01*
X0077625Y0056173D01*
X0077462Y0056477D01*
X0077243Y0056743D01*
X0076977Y0056962D01*
X0076673Y0057125D01*
X0076343Y0057225D01*
X0076000Y0057258D01*
D02*
G37*
G36*
X0071000D02*
X0070657Y0057225D01*
X0070327Y0057125D01*
X0070023Y0056962D01*
X0069757Y0056743D01*
X0069538Y0056477D01*
X0069375Y0056173D01*
X0069275Y0055843D01*
X0069242Y0055500D01*
X0069275Y0055157D01*
X0069375Y0054827D01*
X0069538Y0054523D01*
X0069757Y0054257D01*
X0070023Y0054038D01*
X0070327Y0053875D01*
X0070657Y0053775D01*
X0071000Y0053742D01*
X0071343Y0053775D01*
X0071673Y0053875D01*
X0071977Y0054038D01*
X0072243Y0054257D01*
X0072462Y0054523D01*
X0072625Y0054827D01*
X0072725Y0055157D01*
X0072758Y0055500D01*
X0072725Y0055843D01*
X0072625Y0056173D01*
X0072462Y0056477D01*
X0072243Y0056743D01*
X0071977Y0056962D01*
X0071673Y0057125D01*
X0071343Y0057225D01*
X0071000Y0057258D01*
D02*
G37*
G36*
X0066000D02*
X0065657Y0057225D01*
X0065327Y0057125D01*
X0065023Y0056962D01*
X0064757Y0056743D01*
X0064538Y0056477D01*
X0064375Y0056173D01*
X0064275Y0055843D01*
X0064242Y0055500D01*
X0064275Y0055157D01*
X0064375Y0054827D01*
X0064538Y0054523D01*
X0064757Y0054257D01*
X0065023Y0054038D01*
X0065327Y0053875D01*
X0065657Y0053775D01*
X0066000Y0053742D01*
X0066343Y0053775D01*
X0066673Y0053875D01*
X0066977Y0054038D01*
X0067243Y0054257D01*
X0067462Y0054523D01*
X0067625Y0054827D01*
X0067725Y0055157D01*
X0067758Y0055500D01*
X0067725Y0055843D01*
X0067625Y0056173D01*
X0067462Y0056477D01*
X0067243Y0056743D01*
X0066977Y0056962D01*
X0066673Y0057125D01*
X0066343Y0057225D01*
X0066000Y0057258D01*
D02*
G37*
G36*
X0061000D02*
X0060657Y0057225D01*
X0060327Y0057125D01*
X0060023Y0056962D01*
X0059757Y0056743D01*
X0059538Y0056477D01*
X0059375Y0056173D01*
X0059275Y0055843D01*
X0059242Y0055500D01*
X0059275Y0055157D01*
X0059375Y0054827D01*
X0059538Y0054523D01*
X0059757Y0054257D01*
X0060023Y0054038D01*
X0060327Y0053875D01*
X0060657Y0053775D01*
X0061000Y0053742D01*
X0061343Y0053775D01*
X0061673Y0053875D01*
X0061977Y0054038D01*
X0062243Y0054257D01*
X0062462Y0054523D01*
X0062625Y0054827D01*
X0062725Y0055157D01*
X0062758Y0055500D01*
X0062725Y0055843D01*
X0062625Y0056173D01*
X0062462Y0056477D01*
X0062243Y0056743D01*
X0061977Y0056962D01*
X0061673Y0057125D01*
X0061343Y0057225D01*
X0061000Y0057258D01*
D02*
G37*
G36*
X0050000D02*
X0049657Y0057225D01*
X0049327Y0057125D01*
X0049023Y0056962D01*
X0048757Y0056743D01*
X0048538Y0056477D01*
X0048375Y0056173D01*
X0048275Y0055843D01*
X0048242Y0055500D01*
X0048275Y0055157D01*
X0048375Y0054827D01*
X0048538Y0054523D01*
X0048757Y0054257D01*
X0049023Y0054038D01*
X0049327Y0053875D01*
X0049657Y0053775D01*
X0050000Y0053742D01*
X0050343Y0053775D01*
X0050673Y0053875D01*
X0050977Y0054038D01*
X0051243Y0054257D01*
X0051462Y0054523D01*
X0051625Y0054827D01*
X0051725Y0055157D01*
X0051758Y0055500D01*
X0051725Y0055843D01*
X0051625Y0056173D01*
X0051462Y0056477D01*
X0051243Y0056743D01*
X0050977Y0056962D01*
X0050673Y0057125D01*
X0050343Y0057225D01*
X0050000Y0057258D01*
D02*
G37*
G36*
X0045000D02*
X0044657Y0057225D01*
X0044327Y0057125D01*
X0044023Y0056962D01*
X0043757Y0056743D01*
X0043538Y0056477D01*
X0043375Y0056173D01*
X0043275Y0055843D01*
X0043242Y0055500D01*
X0043275Y0055157D01*
X0043375Y0054827D01*
X0043538Y0054523D01*
X0043757Y0054257D01*
X0044023Y0054038D01*
X0044327Y0053875D01*
X0044657Y0053775D01*
X0045000Y0053742D01*
X0045343Y0053775D01*
X0045673Y0053875D01*
X0045977Y0054038D01*
X0046243Y0054257D01*
X0046462Y0054523D01*
X0046625Y0054827D01*
X0046725Y0055157D01*
X0046758Y0055500D01*
X0046725Y0055843D01*
X0046625Y0056173D01*
X0046462Y0056477D01*
X0046243Y0056743D01*
X0045977Y0056962D01*
X0045673Y0057125D01*
X0045343Y0057225D01*
X0045000Y0057258D01*
D02*
G37*
G36*
X0040000D02*
X0039657Y0057225D01*
X0039327Y0057125D01*
X0039023Y0056962D01*
X0038757Y0056743D01*
X0038538Y0056477D01*
X0038375Y0056173D01*
X0038275Y0055843D01*
X0038242Y0055500D01*
X0038275Y0055157D01*
X0038375Y0054827D01*
X0038538Y0054523D01*
X0038757Y0054257D01*
X0039023Y0054038D01*
X0039327Y0053875D01*
X0039657Y0053775D01*
X0040000Y0053742D01*
X0040343Y0053775D01*
X0040673Y0053875D01*
X0040977Y0054038D01*
X0041243Y0054257D01*
X0041462Y0054523D01*
X0041625Y0054827D01*
X0041725Y0055157D01*
X0041758Y0055500D01*
X0041725Y0055843D01*
X0041625Y0056173D01*
X0041462Y0056477D01*
X0041243Y0056743D01*
X0040977Y0056962D01*
X0040673Y0057125D01*
X0040343Y0057225D01*
X0040000Y0057258D01*
D02*
G37*
G36*
X0035000D02*
X0034657Y0057225D01*
X0034327Y0057125D01*
X0034023Y0056962D01*
X0033757Y0056743D01*
X0033538Y0056477D01*
X0033375Y0056173D01*
X0033275Y0055843D01*
X0033242Y0055500D01*
X0033275Y0055157D01*
X0033375Y0054827D01*
X0033538Y0054523D01*
X0033757Y0054257D01*
X0034023Y0054038D01*
X0034327Y0053875D01*
X0034657Y0053775D01*
X0035000Y0053742D01*
X0035343Y0053775D01*
X0035673Y0053875D01*
X0035977Y0054038D01*
X0036243Y0054257D01*
X0036462Y0054523D01*
X0036625Y0054827D01*
X0036725Y0055157D01*
X0036758Y0055500D01*
X0036725Y0055843D01*
X0036625Y0056173D01*
X0036462Y0056477D01*
X0036243Y0056743D01*
X0035977Y0056962D01*
X0035673Y0057125D01*
X0035343Y0057225D01*
X0035000Y0057258D01*
D02*
G37*
G36*
X0117750Y0055750D02*
X0114208D01*
X0114235Y0055404D01*
X0114375Y0054822D01*
X0114604Y0054270D01*
X0114916Y0053760D01*
X0115305Y0053305D01*
X0115760Y0052916D01*
X0116270Y0052604D01*
X0116822Y0052375D01*
X0117404Y0052235D01*
X0117750Y0052208D01*
Y0055750D01*
D02*
G37*
G36*
X0007792D02*
X0004250D01*
Y0052208D01*
X0004596Y0052235D01*
X0005178Y0052375D01*
X0005731Y0052604D01*
X0006240Y0052916D01*
X0006695Y0053305D01*
X0007084Y0053760D01*
X0007396Y0054270D01*
X0007625Y0054822D01*
X0007765Y0055404D01*
X0007792Y0055750D01*
D02*
G37*
G36*
X0018100Y0057710D02*
X0015000D01*
X0014805Y0057671D01*
X0014640Y0057560D01*
X0014529Y0057395D01*
X0014490Y0057200D01*
Y0051200D01*
X0014529Y0051005D01*
X0014640Y0050840D01*
X0014940Y0050540D01*
X0015105Y0050429D01*
X0015300Y0050390D01*
X0016400D01*
X0016553Y0050421D01*
X0031178Y0035795D01*
X0031071Y0035478D01*
X0031039Y0035474D01*
X0030796Y0035374D01*
X0030587Y0035213D01*
X0030427Y0035004D01*
X0030326Y0034761D01*
X0030291Y0034500D01*
Y0033500D01*
X0030326Y0033239D01*
X0030427Y0032996D01*
X0030587Y0032787D01*
X0032096Y0031277D01*
X0031982Y0031000D01*
X0029800D01*
Y0031000D01*
X0029500Y0030996D01*
X0029426Y0031052D01*
X0029119Y0031180D01*
X0028790Y0031223D01*
X0028461Y0031180D01*
X0028154Y0031052D01*
X0027890Y0030850D01*
X0027688Y0030586D01*
X0027560Y0030279D01*
X0027517Y0029950D01*
X0027560Y0029621D01*
X0027688Y0029314D01*
X0027890Y0029050D01*
X0028154Y0028848D01*
X0028166Y0028842D01*
Y0028518D01*
X0028154Y0028512D01*
X0027890Y0028310D01*
X0027688Y0028046D01*
X0027560Y0027739D01*
X0027517Y0027410D01*
X0027560Y0027081D01*
X0027688Y0026774D01*
X0027890Y0026510D01*
X0028154Y0026308D01*
X0028166Y0026302D01*
Y0025978D01*
X0028154Y0025972D01*
X0027890Y0025770D01*
X0027688Y0025506D01*
X0027560Y0025199D01*
X0027517Y0024870D01*
X0027560Y0024541D01*
X0027688Y0024234D01*
X0027890Y0023970D01*
X0028154Y0023768D01*
X0028166Y0023762D01*
Y0023438D01*
X0028154Y0023432D01*
X0027890Y0023230D01*
X0027688Y0022966D01*
X0027560Y0022659D01*
X0027517Y0022330D01*
X0027560Y0022001D01*
X0027688Y0021694D01*
X0027890Y0021430D01*
X0028154Y0021228D01*
X0028166Y0021222D01*
Y0020898D01*
X0028154Y0020892D01*
X0027890Y0020690D01*
X0027688Y0020426D01*
X0027560Y0020119D01*
X0027517Y0019790D01*
X0027560Y0019461D01*
X0027688Y0019154D01*
X0027890Y0018890D01*
X0028154Y0018688D01*
X0028166Y0018682D01*
Y0018358D01*
X0028154Y0018352D01*
X0027890Y0018150D01*
X0027688Y0017886D01*
X0027560Y0017579D01*
X0027517Y0017250D01*
X0027560Y0016921D01*
X0027688Y0016614D01*
X0027890Y0016350D01*
X0028154Y0016148D01*
X0028461Y0016020D01*
X0028790Y0015977D01*
X0029119Y0016020D01*
X0029426Y0016148D01*
X0029500Y0016204D01*
X0029800Y0016200D01*
Y0016200D01*
X0033400D01*
Y0018200D01*
X0033358D01*
Y0018800D01*
X0033400D01*
Y0020800D01*
X0033358D01*
Y0021300D01*
X0033400D01*
Y0023300D01*
X0033358D01*
Y0023900D01*
X0033400D01*
Y0025900D01*
X0033358D01*
Y0026400D01*
X0033400D01*
Y0027582D01*
X0033700Y0027730D01*
X0033728Y0027709D01*
X0034004Y0027594D01*
X0034300Y0027555D01*
X0034596Y0027594D01*
X0034872Y0027709D01*
X0034874Y0027710D01*
X0035155Y0027547D01*
X0035137Y0027410D01*
X0035180Y0027081D01*
X0035308Y0026774D01*
X0035401Y0026651D01*
Y0025629D01*
X0035308Y0025506D01*
X0035180Y0025199D01*
X0035137Y0024870D01*
X0035180Y0024541D01*
X0035308Y0024234D01*
X0035401Y0024111D01*
Y0023089D01*
X0035308Y0022966D01*
X0035180Y0022659D01*
X0035137Y0022330D01*
X0035180Y0022001D01*
X0035308Y0021694D01*
X0035401Y0021571D01*
Y0020549D01*
X0035308Y0020426D01*
X0035180Y0020119D01*
X0035137Y0019790D01*
X0035180Y0019461D01*
X0035308Y0019154D01*
X0035401Y0019031D01*
Y0018009D01*
X0035308Y0017886D01*
X0035180Y0017579D01*
X0035137Y0017250D01*
X0035180Y0016921D01*
X0035308Y0016614D01*
X0035510Y0016350D01*
X0035774Y0016148D01*
X0036081Y0016020D01*
X0036410Y0015977D01*
X0036739Y0016020D01*
X0037046Y0016148D01*
X0037310Y0016350D01*
X0037512Y0016614D01*
X0037640Y0016921D01*
X0037683Y0017250D01*
X0037640Y0017579D01*
X0037512Y0017886D01*
X0037419Y0018009D01*
Y0019031D01*
X0037512Y0019154D01*
X0037640Y0019461D01*
X0037683Y0019790D01*
X0037640Y0020119D01*
X0037512Y0020426D01*
X0037419Y0020549D01*
Y0021571D01*
X0037512Y0021694D01*
X0037640Y0022001D01*
X0037683Y0022330D01*
X0037640Y0022659D01*
X0037512Y0022966D01*
X0037419Y0023089D01*
Y0024111D01*
X0037512Y0024234D01*
X0037640Y0024541D01*
X0037683Y0024870D01*
X0037640Y0025199D01*
X0037512Y0025506D01*
X0037419Y0025629D01*
Y0026651D01*
X0037512Y0026774D01*
X0037640Y0027081D01*
X0037683Y0027410D01*
X0037640Y0027739D01*
X0037512Y0028046D01*
X0037419Y0028169D01*
Y0029191D01*
X0037512Y0029314D01*
X0037578Y0029472D01*
X0037917Y0029557D01*
X0038841Y0028632D01*
Y0026750D01*
X0038700D01*
Y0024250D01*
X0039100D01*
Y0022852D01*
X0038994Y0022596D01*
X0038955Y0022300D01*
X0038994Y0022004D01*
X0039109Y0021728D01*
X0039291Y0021491D01*
X0039528Y0021309D01*
X0039804Y0021194D01*
X0040100Y0021155D01*
X0040396Y0021194D01*
X0040672Y0021309D01*
X0040909Y0021491D01*
X0041091Y0021728D01*
X0041206Y0022004D01*
X0041245Y0022300D01*
X0041232Y0022400D01*
X0041450Y0022680D01*
Y0023700D01*
X0041950D01*
Y0022700D01*
X0043050D01*
Y0023700D01*
X0043550D01*
Y0022680D01*
X0043768Y0022400D01*
X0043755Y0022300D01*
X0043794Y0022004D01*
X0043909Y0021728D01*
X0044091Y0021491D01*
X0044328Y0021309D01*
X0044604Y0021194D01*
X0044900Y0021155D01*
X0045196Y0021194D01*
X0045472Y0021309D01*
X0045709Y0021491D01*
X0045891Y0021728D01*
X0046006Y0022004D01*
X0046045Y0022300D01*
X0046006Y0022596D01*
X0045900Y0022852D01*
Y0024250D01*
X0046300D01*
Y0026750D01*
X0046159D01*
Y0027350D01*
X0046124Y0027611D01*
X0046023Y0027854D01*
X0045863Y0028063D01*
X0040213Y0033713D01*
X0040004Y0033874D01*
X0039761Y0033974D01*
X0039500Y0034009D01*
X0034709D01*
Y0034700D01*
X0034674Y0034961D01*
X0034573Y0035204D01*
X0034413Y0035413D01*
X0020012Y0049814D01*
X0020127Y0050091D01*
X0024982D01*
X0035887Y0039187D01*
X0036096Y0039027D01*
X0036339Y0038926D01*
X0036600Y0038891D01*
X0059382Y0038891D01*
X0062487Y0035787D01*
X0062347Y0035502D01*
X0062300Y0035509D01*
X0062039Y0035474D01*
X0061796Y0035374D01*
X0061587Y0035213D01*
X0061426Y0035004D01*
X0061326Y0034761D01*
X0061291Y0034500D01*
Y0033500D01*
X0061326Y0033239D01*
X0061426Y0032996D01*
X0061587Y0032787D01*
X0063096Y0031277D01*
X0062982Y0031000D01*
X0060800D01*
Y0031000D01*
X0060500Y0030996D01*
X0060426Y0031052D01*
X0060119Y0031180D01*
X0059790Y0031223D01*
X0059461Y0031180D01*
X0059154Y0031052D01*
X0058890Y0030850D01*
X0058688Y0030586D01*
X0058560Y0030279D01*
X0058517Y0029950D01*
X0058560Y0029621D01*
X0058688Y0029314D01*
X0058890Y0029050D01*
X0059154Y0028848D01*
X0059166Y0028842D01*
Y0028518D01*
X0059154Y0028512D01*
X0058890Y0028310D01*
X0058688Y0028046D01*
X0058560Y0027739D01*
X0058517Y0027410D01*
X0058560Y0027081D01*
X0058688Y0026774D01*
X0058890Y0026510D01*
X0059154Y0026308D01*
X0059166Y0026302D01*
Y0025978D01*
X0059154Y0025972D01*
X0058890Y0025770D01*
X0058688Y0025506D01*
X0058560Y0025199D01*
X0058517Y0024870D01*
X0058560Y0024541D01*
X0058688Y0024234D01*
X0058890Y0023970D01*
X0059154Y0023768D01*
X0059166Y0023762D01*
Y0023438D01*
X0059154Y0023432D01*
X0058890Y0023230D01*
X0058688Y0022966D01*
X0058560Y0022659D01*
X0058517Y0022330D01*
X0058560Y0022001D01*
X0058688Y0021694D01*
X0058890Y0021430D01*
X0059154Y0021228D01*
X0059166Y0021222D01*
Y0020898D01*
X0059154Y0020892D01*
X0058890Y0020690D01*
X0058688Y0020426D01*
X0058560Y0020119D01*
X0058517Y0019790D01*
X0058560Y0019461D01*
X0058688Y0019154D01*
X0058890Y0018890D01*
X0059154Y0018688D01*
X0059166Y0018682D01*
Y0018358D01*
X0059154Y0018352D01*
X0058890Y0018150D01*
X0058688Y0017886D01*
X0058560Y0017579D01*
X0058517Y0017250D01*
X0058560Y0016921D01*
X0058688Y0016614D01*
X0058890Y0016350D01*
X0059154Y0016148D01*
X0059461Y0016020D01*
X0059790Y0015977D01*
X0060119Y0016020D01*
X0060426Y0016148D01*
X0060500Y0016204D01*
X0060800Y0016200D01*
Y0016200D01*
X0064400D01*
Y0018200D01*
X0064358D01*
Y0018800D01*
X0064400D01*
Y0020800D01*
X0064358D01*
Y0021300D01*
X0064400D01*
Y0023300D01*
X0064358D01*
Y0023900D01*
X0064400D01*
Y0025900D01*
X0064358D01*
Y0026400D01*
X0064400D01*
Y0027582D01*
X0064700Y0027730D01*
X0064728Y0027709D01*
X0065004Y0027594D01*
X0065300Y0027555D01*
X0065596Y0027594D01*
X0065872Y0027709D01*
X0065874Y0027710D01*
X0066155Y0027547D01*
X0066137Y0027410D01*
X0066180Y0027081D01*
X0066308Y0026774D01*
X0066401Y0026651D01*
Y0025629D01*
X0066308Y0025506D01*
X0066180Y0025199D01*
X0066137Y0024870D01*
X0066180Y0024541D01*
X0066308Y0024234D01*
X0066401Y0024111D01*
Y0023089D01*
X0066308Y0022966D01*
X0066180Y0022659D01*
X0066137Y0022330D01*
X0066180Y0022001D01*
X0066308Y0021694D01*
X0066401Y0021571D01*
Y0020549D01*
X0066308Y0020426D01*
X0066180Y0020119D01*
X0066137Y0019790D01*
X0066180Y0019461D01*
X0066308Y0019154D01*
X0066401Y0019031D01*
Y0018009D01*
X0066308Y0017886D01*
X0066180Y0017579D01*
X0066137Y0017250D01*
X0066180Y0016921D01*
X0066308Y0016614D01*
X0066510Y0016350D01*
X0066774Y0016148D01*
X0067081Y0016020D01*
X0067410Y0015977D01*
X0067739Y0016020D01*
X0068046Y0016148D01*
X0068310Y0016350D01*
X0068512Y0016614D01*
X0068640Y0016921D01*
X0068683Y0017250D01*
X0068640Y0017579D01*
X0068512Y0017886D01*
X0068419Y0018009D01*
Y0019031D01*
X0068512Y0019154D01*
X0068640Y0019461D01*
X0068683Y0019790D01*
X0068640Y0020119D01*
X0068512Y0020426D01*
X0068419Y0020549D01*
Y0021571D01*
X0068512Y0021694D01*
X0068640Y0022001D01*
X0068683Y0022330D01*
X0068640Y0022659D01*
X0068512Y0022966D01*
X0068419Y0023089D01*
Y0024111D01*
X0068512Y0024234D01*
X0068640Y0024541D01*
X0068683Y0024870D01*
X0068640Y0025199D01*
X0068512Y0025506D01*
X0068419Y0025629D01*
Y0026651D01*
X0068512Y0026774D01*
X0068640Y0027081D01*
X0068683Y0027410D01*
X0068640Y0027739D01*
X0068512Y0028046D01*
X0068419Y0028169D01*
Y0029191D01*
X0068512Y0029314D01*
X0068578Y0029472D01*
X0068917Y0029557D01*
X0069841Y0028632D01*
Y0026750D01*
X0069700D01*
Y0024250D01*
X0070100D01*
Y0022852D01*
X0069994Y0022596D01*
X0069955Y0022300D01*
X0069994Y0022004D01*
X0070109Y0021728D01*
X0070291Y0021491D01*
X0070528Y0021309D01*
X0070804Y0021194D01*
X0071100Y0021155D01*
X0071396Y0021194D01*
X0071672Y0021309D01*
X0071909Y0021491D01*
X0072091Y0021728D01*
X0072206Y0022004D01*
X0072245Y0022300D01*
X0072232Y0022400D01*
X0072450Y0022680D01*
Y0023700D01*
X0072950D01*
Y0022700D01*
X0074050D01*
Y0023700D01*
X0074550D01*
Y0022680D01*
X0074768Y0022400D01*
X0074755Y0022300D01*
X0074794Y0022004D01*
X0074909Y0021728D01*
X0075091Y0021491D01*
X0075328Y0021309D01*
X0075604Y0021194D01*
X0075900Y0021155D01*
X0076196Y0021194D01*
X0076472Y0021309D01*
X0076709Y0021491D01*
X0076891Y0021728D01*
X0077006Y0022004D01*
X0077045Y0022300D01*
X0077006Y0022596D01*
X0076900Y0022852D01*
Y0024250D01*
X0077300D01*
Y0026750D01*
X0077159D01*
Y0027350D01*
X0077124Y0027611D01*
X0077023Y0027854D01*
X0076863Y0028063D01*
X0071213Y0033713D01*
X0071004Y0033874D01*
X0070761Y0033974D01*
X0070500Y0034009D01*
X0065709D01*
Y0035000D01*
X0065674Y0035261D01*
X0065573Y0035504D01*
X0065413Y0035713D01*
X0060513Y0040613D01*
X0060304Y0040773D01*
X0060061Y0040874D01*
X0059800Y0040909D01*
X0058361D01*
X0058183Y0041209D01*
X0058209Y0041400D01*
X0058183Y0041591D01*
X0058361Y0041891D01*
X0084282D01*
X0092091Y0034082D01*
Y0033500D01*
X0092126Y0033239D01*
X0092227Y0032996D01*
X0092387Y0032787D01*
X0093896Y0031277D01*
X0093782Y0031000D01*
X0091600D01*
Y0031000D01*
X0091300Y0030996D01*
X0091226Y0031052D01*
X0090919Y0031180D01*
X0090590Y0031223D01*
X0090261Y0031180D01*
X0089954Y0031052D01*
X0089690Y0030850D01*
X0089488Y0030586D01*
X0089360Y0030279D01*
X0089317Y0029950D01*
X0089360Y0029621D01*
X0089488Y0029314D01*
X0089690Y0029050D01*
X0089954Y0028848D01*
X0089966Y0028842D01*
Y0028518D01*
X0089954Y0028512D01*
X0089690Y0028310D01*
X0089488Y0028046D01*
X0089360Y0027739D01*
X0089317Y0027410D01*
X0089360Y0027081D01*
X0089488Y0026774D01*
X0089690Y0026510D01*
X0089954Y0026308D01*
X0089966Y0026302D01*
Y0025978D01*
X0089954Y0025972D01*
X0089690Y0025770D01*
X0089488Y0025506D01*
X0089360Y0025199D01*
X0089317Y0024870D01*
X0089360Y0024541D01*
X0089488Y0024234D01*
X0089690Y0023970D01*
X0089954Y0023768D01*
X0089966Y0023762D01*
Y0023438D01*
X0089954Y0023432D01*
X0089690Y0023230D01*
X0089488Y0022966D01*
X0089360Y0022659D01*
X0089317Y0022330D01*
X0089360Y0022001D01*
X0089488Y0021694D01*
X0089690Y0021430D01*
X0089954Y0021228D01*
X0089966Y0021222D01*
Y0020898D01*
X0089954Y0020892D01*
X0089690Y0020690D01*
X0089488Y0020426D01*
X0089360Y0020119D01*
X0089317Y0019790D01*
X0089360Y0019461D01*
X0089488Y0019154D01*
X0089690Y0018890D01*
X0089954Y0018688D01*
X0089966Y0018682D01*
Y0018358D01*
X0089954Y0018352D01*
X0089690Y0018150D01*
X0089488Y0017886D01*
X0089360Y0017579D01*
X0089317Y0017250D01*
X0089360Y0016921D01*
X0089488Y0016614D01*
X0089690Y0016350D01*
X0089954Y0016148D01*
X0090261Y0016020D01*
X0090590Y0015977D01*
X0090919Y0016020D01*
X0091226Y0016148D01*
X0091300Y0016204D01*
X0091600Y0016200D01*
Y0016200D01*
X0095200D01*
Y0018200D01*
X0095158D01*
Y0018800D01*
X0095200D01*
Y0020800D01*
X0095158D01*
Y0021300D01*
X0095200D01*
Y0023300D01*
X0095158D01*
Y0023900D01*
X0095200D01*
Y0025900D01*
X0095158D01*
Y0026400D01*
X0095200D01*
Y0027582D01*
X0095500Y0027730D01*
X0095528Y0027709D01*
X0095804Y0027594D01*
X0096100Y0027555D01*
X0096396Y0027594D01*
X0096672Y0027709D01*
X0096674Y0027710D01*
X0096955Y0027547D01*
X0096937Y0027410D01*
X0096980Y0027081D01*
X0097108Y0026774D01*
X0097201Y0026651D01*
Y0025629D01*
X0097108Y0025506D01*
X0096980Y0025199D01*
X0096937Y0024870D01*
X0096980Y0024541D01*
X0097108Y0024234D01*
X0097201Y0024111D01*
Y0023089D01*
X0097108Y0022966D01*
X0096980Y0022659D01*
X0096937Y0022330D01*
X0096980Y0022001D01*
X0097108Y0021694D01*
X0097201Y0021571D01*
Y0020549D01*
X0097108Y0020426D01*
X0096980Y0020119D01*
X0096937Y0019790D01*
X0096980Y0019461D01*
X0097108Y0019154D01*
X0097201Y0019031D01*
Y0018009D01*
X0097108Y0017886D01*
X0096980Y0017579D01*
X0096937Y0017250D01*
X0096980Y0016921D01*
X0097108Y0016614D01*
X0097310Y0016350D01*
X0097574Y0016148D01*
X0097881Y0016020D01*
X0098210Y0015977D01*
X0098539Y0016020D01*
X0098846Y0016148D01*
X0099110Y0016350D01*
X0099312Y0016614D01*
X0099440Y0016921D01*
X0099483Y0017250D01*
X0099440Y0017579D01*
X0099312Y0017886D01*
X0099219Y0018009D01*
Y0019031D01*
X0099312Y0019154D01*
X0099440Y0019461D01*
X0099483Y0019790D01*
X0099440Y0020119D01*
X0099312Y0020426D01*
X0099219Y0020549D01*
Y0021571D01*
X0099312Y0021694D01*
X0099440Y0022001D01*
X0099483Y0022330D01*
X0099440Y0022659D01*
X0099312Y0022966D01*
X0099219Y0023089D01*
Y0024111D01*
X0099312Y0024234D01*
X0099440Y0024541D01*
X0099483Y0024870D01*
X0099440Y0025199D01*
X0099312Y0025506D01*
X0099219Y0025629D01*
Y0026651D01*
X0099312Y0026774D01*
X0099440Y0027081D01*
X0099483Y0027410D01*
X0099440Y0027739D01*
X0099312Y0028046D01*
X0099219Y0028169D01*
Y0029191D01*
X0099312Y0029314D01*
X0099378Y0029472D01*
X0099717Y0029557D01*
X0100641Y0028632D01*
Y0026750D01*
X0100500D01*
Y0024250D01*
X0100900D01*
Y0022852D01*
X0100794Y0022596D01*
X0100755Y0022300D01*
X0100794Y0022004D01*
X0100909Y0021728D01*
X0101091Y0021491D01*
X0101328Y0021309D01*
X0101604Y0021194D01*
X0101900Y0021155D01*
X0102196Y0021194D01*
X0102472Y0021309D01*
X0102709Y0021491D01*
X0102891Y0021728D01*
X0103006Y0022004D01*
X0103045Y0022300D01*
X0103032Y0022400D01*
X0103250Y0022680D01*
Y0023700D01*
X0103750D01*
Y0022700D01*
X0104850D01*
Y0023700D01*
X0105350D01*
Y0022680D01*
X0105568Y0022400D01*
X0105555Y0022300D01*
X0105594Y0022004D01*
X0105709Y0021728D01*
X0105891Y0021491D01*
X0106128Y0021309D01*
X0106404Y0021194D01*
X0106700Y0021155D01*
X0106996Y0021194D01*
X0107272Y0021309D01*
X0107509Y0021491D01*
X0107691Y0021728D01*
X0107806Y0022004D01*
X0107845Y0022300D01*
X0107806Y0022596D01*
X0107700Y0022852D01*
Y0024250D01*
X0108100D01*
Y0026750D01*
X0107959D01*
Y0027350D01*
X0107924Y0027611D01*
X0107824Y0027854D01*
X0107663Y0028063D01*
X0102013Y0033713D01*
X0101804Y0033874D01*
X0101561Y0033974D01*
X0101300Y0034009D01*
X0096509D01*
Y0034500D01*
X0096474Y0034761D01*
X0096373Y0035004D01*
X0096213Y0035213D01*
X0086313Y0045113D01*
X0086104Y0045273D01*
X0085861Y0045374D01*
X0085600Y0045409D01*
X0038518D01*
X0030436Y0053490D01*
X0030521Y0053829D01*
X0030673Y0053875D01*
X0030977Y0054038D01*
X0031243Y0054257D01*
X0031462Y0054523D01*
X0031625Y0054827D01*
X0031725Y0055157D01*
X0031758Y0055500D01*
X0031725Y0055843D01*
X0031625Y0056173D01*
X0031462Y0056477D01*
X0031243Y0056743D01*
X0030977Y0056962D01*
X0030673Y0057125D01*
X0030343Y0057225D01*
X0030000Y0057258D01*
X0029657Y0057225D01*
X0029327Y0057125D01*
X0029023Y0056962D01*
X0028757Y0056743D01*
X0028538Y0056477D01*
X0028375Y0056173D01*
X0028329Y0056021D01*
X0027990Y0055936D01*
X0026613Y0057313D01*
X0026404Y0057473D01*
X0026161Y0057574D01*
X0025900Y0057609D01*
X0018388D01*
X0018295Y0057671D01*
X0018100Y0057710D01*
D02*
G37*
G36*
X0013900Y0028409D02*
X0013639Y0028374D01*
X0013396Y0028274D01*
X0013187Y0028113D01*
X0013026Y0027904D01*
X0012926Y0027661D01*
X0012891Y0027400D01*
X0012923Y0027156D01*
X0012922Y0027134D01*
X0012718Y0026856D01*
X0009000D01*
X0008804Y0026831D01*
X0008622Y0026755D01*
X0008465Y0026635D01*
X0007030Y0025199D01*
X0006839Y0025174D01*
X0006596Y0025073D01*
X0006387Y0024913D01*
X0006227Y0024704D01*
X0006126Y0024461D01*
X0006091Y0024200D01*
X0006126Y0023939D01*
X0006227Y0023696D01*
X0006387Y0023487D01*
X0006596Y0023326D01*
X0006839Y0023226D01*
X0007100Y0023191D01*
X0007361Y0023226D01*
X0007604Y0023326D01*
X0007813Y0023487D01*
X0007973Y0023696D01*
X0008074Y0023939D01*
X0008099Y0024130D01*
X0009217Y0025247D01*
X0009300Y0025226D01*
X0009367Y0024900D01*
X0009273Y0024827D01*
X0009064Y0024556D01*
X0008933Y0024239D01*
X0008889Y0023900D01*
X0008933Y0023561D01*
X0009064Y0023244D01*
X0009273Y0022973D01*
X0009463Y0022827D01*
X0009488Y0022737D01*
Y0022563D01*
X0009463Y0022473D01*
X0009273Y0022327D01*
X0009064Y0022056D01*
X0008933Y0021739D01*
X0008889Y0021400D01*
X0008933Y0021061D01*
X0009064Y0020744D01*
X0009273Y0020473D01*
X0009463Y0020327D01*
X0009488Y0020237D01*
Y0020063D01*
X0009463Y0019973D01*
X0009273Y0019827D01*
X0009064Y0019556D01*
X0008933Y0019239D01*
X0008889Y0018900D01*
X0008933Y0018561D01*
X0009064Y0018244D01*
X0009273Y0017973D01*
X0009544Y0017764D01*
X0009861Y0017633D01*
X0010200Y0017589D01*
X0010539Y0017633D01*
X0010856Y0017764D01*
X0011127Y0017973D01*
X0011336Y0018244D01*
X0011467Y0018561D01*
X0011511Y0018900D01*
X0011467Y0019239D01*
X0011336Y0019556D01*
X0011127Y0019827D01*
X0010937Y0019973D01*
X0010912Y0020063D01*
Y0020237D01*
X0010937Y0020327D01*
X0011127Y0020473D01*
X0011336Y0020744D01*
X0011467Y0021061D01*
X0011511Y0021400D01*
X0011467Y0021739D01*
X0011336Y0022056D01*
X0011127Y0022327D01*
X0010937Y0022473D01*
X0010912Y0022563D01*
Y0022737D01*
X0010937Y0022827D01*
X0011127Y0022973D01*
X0011258Y0023144D01*
X0013200D01*
X0013396Y0023169D01*
X0013578Y0023245D01*
X0013735Y0023365D01*
X0015635Y0025265D01*
X0015755Y0025422D01*
X0015831Y0025604D01*
X0015856Y0025800D01*
Y0026900D01*
X0015831Y0027096D01*
X0015755Y0027278D01*
X0015635Y0027435D01*
X0015635Y0027435D01*
X0015135Y0027935D01*
X0014978Y0028055D01*
X0014796Y0028131D01*
X0014600Y0028156D01*
X0014557D01*
X0014404Y0028274D01*
X0014161Y0028374D01*
X0013900Y0028409D01*
D02*
G37*
G36*
X0004200Y0025211D02*
X0003861Y0025167D01*
X0003544Y0025036D01*
X0003273Y0024827D01*
X0003064Y0024556D01*
X0002933Y0024239D01*
X0002889Y0023900D01*
X0002933Y0023561D01*
X0003064Y0023244D01*
X0003273Y0022973D01*
X0003463Y0022827D01*
X0003488Y0022737D01*
Y0022563D01*
X0003463Y0022473D01*
X0003273Y0022327D01*
X0003064Y0022056D01*
X0002933Y0021739D01*
X0002889Y0021400D01*
X0002933Y0021061D01*
X0003064Y0020744D01*
X0003273Y0020473D01*
X0003463Y0020327D01*
X0003488Y0020237D01*
Y0020063D01*
X0003463Y0019973D01*
X0003273Y0019827D01*
X0003064Y0019556D01*
X0002933Y0019239D01*
X0002889Y0018900D01*
X0002933Y0018561D01*
X0003064Y0018244D01*
X0003273Y0017973D01*
X0003544Y0017764D01*
X0003861Y0017633D01*
X0004200Y0017589D01*
X0004539Y0017633D01*
X0004856Y0017764D01*
X0005127Y0017973D01*
X0005336Y0018244D01*
X0005467Y0018561D01*
X0005511Y0018900D01*
X0005467Y0019239D01*
X0005336Y0019556D01*
X0005127Y0019827D01*
X0004937Y0019973D01*
X0004912Y0020063D01*
Y0020237D01*
X0004937Y0020327D01*
X0005127Y0020473D01*
X0005336Y0020744D01*
X0005467Y0021061D01*
X0005511Y0021400D01*
X0005467Y0021739D01*
X0005336Y0022056D01*
X0005127Y0022327D01*
X0004937Y0022473D01*
X0004912Y0022563D01*
Y0022737D01*
X0004937Y0022827D01*
X0005127Y0022973D01*
X0005336Y0023244D01*
X0005467Y0023561D01*
X0005511Y0023900D01*
X0005467Y0024239D01*
X0005336Y0024556D01*
X0005127Y0024827D01*
X0004856Y0025036D01*
X0004539Y0025167D01*
X0004200Y0025211D01*
D02*
G37*
G36*
X0013589Y0015330D02*
X0013285Y0015301D01*
X0012993Y0015212D01*
X0012724Y0015068D01*
X0012488Y0014874D01*
X0012294Y0014638D01*
X0012150Y0014369D01*
X0012061Y0014077D01*
X0012031Y0013773D01*
Y0011373D01*
X0012061Y0011069D01*
X0012150Y0010777D01*
X0012294Y0010508D01*
X0012488Y0010272D01*
X0012724Y0010078D01*
X0012993Y0009934D01*
X0013285Y0009845D01*
X0013589Y0009816D01*
X0013893Y0009845D01*
X0014185Y0009934D01*
X0014454Y0010078D01*
X0014690Y0010272D01*
X0014884Y0010508D01*
X0015028Y0010777D01*
X0015117Y0011069D01*
X0015146Y0011373D01*
Y0013773D01*
X0015117Y0014077D01*
X0015028Y0014369D01*
X0014884Y0014638D01*
X0014690Y0014874D01*
X0014454Y0015068D01*
X0014185Y0015212D01*
X0013893Y0015301D01*
X0013589Y0015330D01*
D02*
G37*
G36*
X0007439D02*
X0007135Y0015301D01*
X0006843Y0015212D01*
X0006574Y0015068D01*
X0006338Y0014874D01*
X0006144Y0014638D01*
X0006000Y0014369D01*
X0005911Y0014077D01*
X0005881Y0013773D01*
Y0011373D01*
X0005911Y0011069D01*
X0006000Y0010777D01*
X0006144Y0010508D01*
X0006338Y0010272D01*
X0006574Y0010078D01*
X0006843Y0009934D01*
X0007135Y0009845D01*
X0007439Y0009816D01*
X0007743Y0009845D01*
X0008035Y0009934D01*
X0008304Y0010078D01*
X0008540Y0010272D01*
X0008734Y0010508D01*
X0008878Y0010777D01*
X0008967Y0011069D01*
X0008997Y0011373D01*
Y0013773D01*
X0008967Y0014077D01*
X0008878Y0014369D01*
X0008734Y0014638D01*
X0008540Y0014874D01*
X0008304Y0015068D01*
X0008035Y0015212D01*
X0007743Y0015301D01*
X0007439Y0015330D01*
D02*
G37*
G36*
X0106600Y0006258D02*
X0101827Y0006236D01*
X0101600Y0006258D01*
X0101257Y0006225D01*
X0100927Y0006125D01*
X0100623Y0005962D01*
X0100357Y0005743D01*
X0100138Y0005477D01*
X0099975Y0005173D01*
X0099875Y0004843D01*
X0099842Y0004500D01*
X0099875Y0004157D01*
X0099975Y0003827D01*
X0100138Y0003523D01*
X0100357Y0003257D01*
X0100623Y0003038D01*
X0100927Y0002875D01*
X0101257Y0002775D01*
X0101600Y0002742D01*
X0101604Y0002742D01*
X0106338D01*
X0106597Y0002742D01*
X0106600Y0002742D01*
X0106638Y0002742D01*
Y0002745D01*
X0106943Y0002775D01*
X0107273Y0002875D01*
X0107577Y0003038D01*
X0107843Y0003257D01*
X0108062Y0003523D01*
X0108225Y0003827D01*
X0108325Y0004157D01*
X0108358Y0004500D01*
X0108325Y0004843D01*
X0108225Y0005173D01*
X0108062Y0005477D01*
X0107843Y0005743D01*
X0107577Y0005962D01*
X0107273Y0006125D01*
X0106943Y0006225D01*
X0106600Y0006258D01*
D02*
G37*
G36*
X0075800D02*
X0071027Y0006236D01*
X0070800Y0006258D01*
X0070457Y0006225D01*
X0070127Y0006125D01*
X0069823Y0005962D01*
X0069557Y0005743D01*
X0069338Y0005477D01*
X0069175Y0005173D01*
X0069075Y0004843D01*
X0069042Y0004500D01*
X0069075Y0004157D01*
X0069175Y0003827D01*
X0069338Y0003523D01*
X0069557Y0003257D01*
X0069823Y0003038D01*
X0070127Y0002875D01*
X0070457Y0002775D01*
X0070800Y0002742D01*
X0070804Y0002742D01*
X0075538D01*
X0075797Y0002742D01*
X0075800Y0002742D01*
X0075838Y0002742D01*
Y0002745D01*
X0076143Y0002775D01*
X0076473Y0002875D01*
X0076777Y0003038D01*
X0077043Y0003257D01*
X0077262Y0003523D01*
X0077425Y0003827D01*
X0077525Y0004157D01*
X0077558Y0004500D01*
X0077525Y0004843D01*
X0077425Y0005173D01*
X0077262Y0005477D01*
X0077043Y0005743D01*
X0076777Y0005962D01*
X0076473Y0006125D01*
X0076143Y0006225D01*
X0075800Y0006258D01*
D02*
G37*
G36*
X0044800D02*
X0040027Y0006236D01*
X0039800Y0006258D01*
X0039457Y0006225D01*
X0039127Y0006125D01*
X0038823Y0005962D01*
X0038557Y0005743D01*
X0038338Y0005477D01*
X0038175Y0005173D01*
X0038075Y0004843D01*
X0038042Y0004500D01*
X0038075Y0004157D01*
X0038175Y0003827D01*
X0038338Y0003523D01*
X0038557Y0003257D01*
X0038823Y0003038D01*
X0039127Y0002875D01*
X0039457Y0002775D01*
X0039800Y0002742D01*
X0039804Y0002742D01*
X0044538D01*
X0044797Y0002742D01*
X0044800Y0002742D01*
X0044838Y0002742D01*
Y0002745D01*
X0045143Y0002775D01*
X0045473Y0002875D01*
X0045777Y0003038D01*
X0046043Y0003257D01*
X0046262Y0003523D01*
X0046425Y0003827D01*
X0046525Y0004157D01*
X0046558Y0004500D01*
X0046525Y0004843D01*
X0046425Y0005173D01*
X0046262Y0005477D01*
X0046043Y0005743D01*
X0045777Y0005962D01*
X0045473Y0006125D01*
X0045143Y0006225D01*
X0044800Y0006258D01*
D02*
G37*
G36*
X0011939Y0009130D02*
X0009539D01*
X0009235Y0009101D01*
X0008943Y0009012D01*
X0008674Y0008868D01*
X0008438Y0008674D01*
X0008244Y0008438D01*
X0008100Y0008169D01*
X0008011Y0007877D01*
X0007982Y0007573D01*
X0008011Y0007269D01*
X0008100Y0006977D01*
X0008244Y0006708D01*
X0008438Y0006472D01*
X0008674Y0006278D01*
X0008943Y0006134D01*
X0009235Y0006045D01*
X0009539Y0006016D01*
X0011939D01*
X0012243Y0006045D01*
X0012535Y0006134D01*
X0012804Y0006278D01*
X0013040Y0006472D01*
X0013234Y0006708D01*
X0013378Y0006977D01*
X0013467Y0007269D01*
X0013497Y0007573D01*
X0013467Y0007877D01*
X0013378Y0008169D01*
X0013234Y0008438D01*
X0013040Y0008674D01*
X0012804Y0008868D01*
X0012535Y0009012D01*
X0012243Y0009101D01*
X0011939Y0009130D01*
D02*
G37*
G36*
X0117750Y0007792D02*
X0117404Y0007765D01*
X0116822Y0007625D01*
X0116270Y0007396D01*
X0115760Y0007084D01*
X0115305Y0006695D01*
X0114916Y0006240D01*
X0114604Y0005731D01*
X0114375Y0005178D01*
X0114235Y0004596D01*
X0114208Y0004250D01*
X0117750D01*
Y0007792D01*
D02*
G37*
G36*
X0004250D02*
Y0004250D01*
X0007792D01*
X0007765Y0004596D01*
X0007625Y0005178D01*
X0007396Y0005731D01*
X0007084Y0006240D01*
X0006695Y0006695D01*
X0006240Y0007084D01*
X0005731Y0007396D01*
X0005178Y0007625D01*
X0004596Y0007765D01*
X0004250Y0007792D01*
D02*
G37*
G36*
X0112450Y0004150D02*
X0109750D01*
Y0002250D01*
X0112450D01*
Y0004150D01*
D02*
G37*
%LPD*%
G36*
X0025500Y0052100D02*
X0020100D01*
X0018800Y0053400D01*
Y0055600D01*
X0025500D01*
Y0052100D01*
D02*
G37*
G36*
X0018300Y0057000D02*
Y0052900D01*
X0016400Y0051000D01*
Y0050900D01*
X0015300D01*
X0015000Y0051200D01*
Y0057200D01*
X0018100D01*
X0018300Y0057000D01*
D02*
G37*
G36*
X0044024Y0027050D02*
X0043899Y0026750D01*
X0043700D01*
Y0025500D01*
X0043200D01*
Y0026750D01*
X0041800D01*
Y0025500D01*
X0041300D01*
Y0026750D01*
X0040859D01*
Y0029050D01*
X0040824Y0029311D01*
X0040723Y0029554D01*
X0040563Y0029763D01*
X0038612Y0031714D01*
X0038727Y0031991D01*
X0039082D01*
X0044024Y0027050D01*
D02*
G37*
G36*
X0075024D02*
X0074899Y0026750D01*
X0074700D01*
Y0025500D01*
X0074200D01*
Y0026750D01*
X0072800D01*
Y0025500D01*
X0072300D01*
Y0026750D01*
X0071859D01*
Y0029050D01*
X0071824Y0029311D01*
X0071724Y0029554D01*
X0071563Y0029763D01*
X0069612Y0031714D01*
X0069727Y0031991D01*
X0070082D01*
X0075024Y0027050D01*
D02*
G37*
G36*
X0105824D02*
X0105699Y0026750D01*
X0105500D01*
Y0025500D01*
X0105000D01*
Y0026750D01*
X0103600D01*
Y0025500D01*
X0103100D01*
Y0026750D01*
X0102659D01*
Y0029050D01*
X0102624Y0029311D01*
X0102523Y0029554D01*
X0102363Y0029763D01*
X0100412Y0031714D01*
X0100527Y0031991D01*
X0100882D01*
X0105824Y0027050D01*
D02*
G37*
D12*
X0111100Y0002250D02*
Y0004150D01*
D14*
X0112017Y0002850D02*
X0111550D01*
X0112017Y0003317D01*
Y0003433D01*
X0111900Y0003550D01*
X0111667D01*
X0111550Y0003433D01*
D41*
X0120500Y0050200D02*
D03*
Y0051700D02*
D03*
Y0048700D02*
D03*
X0025600Y0009700D02*
D03*
Y0012700D02*
D03*
Y0006700D02*
D03*
X0087600Y0051700D02*
D03*
Y0048700D02*
D03*
Y0054700D02*
D03*
X0056600Y0051700D02*
D03*
Y0048700D02*
D03*
Y0054700D02*
D03*
X0087600Y0033700D02*
D03*
Y0036700D02*
D03*
Y0024700D02*
D03*
Y0027700D02*
D03*
Y0030700D02*
D03*
Y0012700D02*
D03*
Y0015700D02*
D03*
Y0018700D02*
D03*
Y0021700D02*
D03*
Y0009700D02*
D03*
X0056600Y0033700D02*
D03*
Y0036700D02*
D03*
Y0024700D02*
D03*
Y0027700D02*
D03*
Y0030700D02*
D03*
Y0012700D02*
D03*
Y0015700D02*
D03*
Y0018700D02*
D03*
Y0021700D02*
D03*
Y0009700D02*
D03*
Y0003700D02*
D03*
X0078400Y0038200D02*
D03*
X0084400D02*
D03*
X0081400D02*
D03*
X0051400D02*
D03*
X0048400D02*
D03*
X0054400D02*
D03*
X0020600Y0033700D02*
D03*
Y0036700D02*
D03*
Y0039700D02*
D03*
Y0024700D02*
D03*
Y0027700D02*
D03*
Y0030700D02*
D03*
Y0015700D02*
D03*
Y0018700D02*
D03*
Y0021700D02*
D03*
X0112600Y0058500D02*
D03*
X0096100D02*
D03*
X0093100D02*
D03*
X0090100D02*
D03*
X0105100D02*
D03*
X0102100D02*
D03*
X0099100D02*
D03*
X0114100D02*
D03*
X0111100D02*
D03*
X0108100D02*
D03*
X0066100D02*
D03*
X0063100D02*
D03*
X0060100D02*
D03*
X0075100D02*
D03*
X0072100D02*
D03*
X0069100D02*
D03*
X0087100D02*
D03*
X0084100D02*
D03*
X0081100D02*
D03*
X0078100D02*
D03*
X0036100D02*
D03*
X0033100D02*
D03*
X0030100D02*
D03*
X0045100D02*
D03*
X0042100D02*
D03*
X0039100D02*
D03*
X0057100D02*
D03*
X0054100D02*
D03*
X0051100D02*
D03*
X0048100D02*
D03*
X0120500Y0044200D02*
D03*
Y0041200D02*
D03*
Y0038200D02*
D03*
Y0047200D02*
D03*
Y0014200D02*
D03*
Y0011200D02*
D03*
Y0008200D02*
D03*
Y0023200D02*
D03*
Y0020200D02*
D03*
Y0017200D02*
D03*
Y0035200D02*
D03*
Y0032200D02*
D03*
Y0029200D02*
D03*
Y0026200D02*
D03*
X0096100Y0001500D02*
D03*
X0093100D02*
D03*
X0090100D02*
D03*
X0105100D02*
D03*
X0102100D02*
D03*
X0099100D02*
D03*
X0114100D02*
D03*
X0111100D02*
D03*
X0108100D02*
D03*
X0066100D02*
D03*
X0063100D02*
D03*
X0060100D02*
D03*
X0075100D02*
D03*
X0072100D02*
D03*
X0069100D02*
D03*
X0087100D02*
D03*
X0084100D02*
D03*
X0081100D02*
D03*
X0078100D02*
D03*
X0036100D02*
D03*
X0033100D02*
D03*
X0030100D02*
D03*
X0045100D02*
D03*
X0042100D02*
D03*
X0039100D02*
D03*
X0057100D02*
D03*
X0054100D02*
D03*
X0051100D02*
D03*
X0048100D02*
D03*
X0101100Y0020200D02*
D03*
Y0008200D02*
D03*
Y0011200D02*
D03*
Y0014200D02*
D03*
Y0017200D02*
D03*
X0107100Y0020200D02*
D03*
Y0008200D02*
D03*
Y0011200D02*
D03*
Y0014200D02*
D03*
Y0017200D02*
D03*
X0076300Y0020200D02*
D03*
Y0008200D02*
D03*
Y0011200D02*
D03*
Y0014200D02*
D03*
Y0017200D02*
D03*
X0070300Y0020200D02*
D03*
Y0008200D02*
D03*
Y0011200D02*
D03*
Y0014200D02*
D03*
Y0017200D02*
D03*
X0039300Y0020200D02*
D03*
Y0008200D02*
D03*
Y0011200D02*
D03*
Y0014200D02*
D03*
Y0017200D02*
D03*
X0045300D02*
D03*
Y0014200D02*
D03*
Y0011200D02*
D03*
Y0008200D02*
D03*
Y0020200D02*
D03*
X0100400Y0038100D02*
D03*
Y0035700D02*
D03*
X0116000Y0046200D02*
D03*
X0097600D02*
D03*
X0101500D02*
D03*
X0108400D02*
D03*
X0075400D02*
D03*
X0069400D02*
D03*
X0084400D02*
D03*
X0078400D02*
D03*
X0090400D02*
D03*
X0087400D02*
D03*
X0048400D02*
D03*
X0045400D02*
D03*
X0039400D02*
D03*
X0057400D02*
D03*
X0054400D02*
D03*
X0066400D02*
D03*
X0060400D02*
D03*
X0069600Y0040600D02*
D03*
Y0038000D02*
D03*
Y0035500D02*
D03*
X0059400Y0041400D02*
D03*
X0100000Y0026200D02*
D03*
X0069100Y0026100D02*
D03*
X0092900Y0031500D02*
D03*
X0062100D02*
D03*
X0031100D02*
D03*
X0038200Y0025600D02*
D03*
X0038900Y0035200D02*
D03*
Y0037700D02*
D03*
X0094300Y0051100D02*
D03*
X0063500Y0051200D02*
D03*
X0104300Y0055000D02*
D03*
X0073500D02*
D03*
X0042500D02*
D03*
X0032900Y0052100D02*
D03*
X0029100Y0044500D02*
D03*
X0096200Y0026200D02*
D03*
X0065300Y0026100D02*
D03*
X0034400Y0026300D02*
D03*
X0120500Y0036700D02*
D03*
Y0033700D02*
D03*
Y0045700D02*
D03*
Y0042700D02*
D03*
Y0039700D02*
D03*
Y0009700D02*
D03*
Y0018700D02*
D03*
Y0015700D02*
D03*
Y0012700D02*
D03*
Y0030700D02*
D03*
Y0027700D02*
D03*
Y0024700D02*
D03*
Y0021700D02*
D03*
X0112600Y0001500D02*
D03*
X0025600Y0045700D02*
D03*
Y0048700D02*
D03*
X0088600Y0058500D02*
D03*
X0085600D02*
D03*
X0097600D02*
D03*
X0094600D02*
D03*
X0091600D02*
D03*
X0109600D02*
D03*
X0106600D02*
D03*
X0103600D02*
D03*
X0100600D02*
D03*
X0061600D02*
D03*
X0058600D02*
D03*
X0070600D02*
D03*
X0067600D02*
D03*
X0064600D02*
D03*
X0082600D02*
D03*
X0079600D02*
D03*
X0076600D02*
D03*
X0073600D02*
D03*
X0034600D02*
D03*
X0031600D02*
D03*
X0028600D02*
D03*
X0043600D02*
D03*
X0040600D02*
D03*
X0037600D02*
D03*
X0055600D02*
D03*
X0052600D02*
D03*
X0049600D02*
D03*
X0046600D02*
D03*
X0082600Y0001500D02*
D03*
X0085600D02*
D03*
X0088600D02*
D03*
X0097600D02*
D03*
X0094600D02*
D03*
X0091600D02*
D03*
X0109600D02*
D03*
X0106600D02*
D03*
X0103600D02*
D03*
X0100600D02*
D03*
X0061600D02*
D03*
X0058600D02*
D03*
X0070600D02*
D03*
X0067600D02*
D03*
X0064600D02*
D03*
X0079600D02*
D03*
X0076600D02*
D03*
X0073600D02*
D03*
X0034600D02*
D03*
X0031600D02*
D03*
X0043600D02*
D03*
X0040600D02*
D03*
X0037600D02*
D03*
X0055600D02*
D03*
X0052600D02*
D03*
X0049600D02*
D03*
X0046600D02*
D03*
X0025600Y0003700D02*
D03*
X0028600Y0001500D02*
D03*
X0025600Y0021700D02*
D03*
Y0018700D02*
D03*
Y0015700D02*
D03*
Y0030700D02*
D03*
Y0027700D02*
D03*
Y0024700D02*
D03*
Y0039700D02*
D03*
Y0036700D02*
D03*
Y0033700D02*
D03*
X0015500Y0040700D02*
D03*
X0021400Y0049500D02*
D03*
X0023600Y0047100D02*
D03*
Y0048300D02*
D03*
X0022500D02*
D03*
Y0049500D02*
D03*
X0023600D02*
D03*
X0038800Y0031800D02*
D03*
X0069800D02*
D03*
X0100600D02*
D03*
X0056200Y0041400D02*
D03*
X0057200D02*
D03*
X0062300Y0034500D02*
D03*
X0031300Y0033500D02*
D03*
X0031300Y0034500D02*
D03*
X0062300Y0033500D02*
D03*
X0033700Y0034500D02*
D03*
X0033700Y0033500D02*
D03*
X0064700Y0034500D02*
D03*
X0064700Y0033500D02*
D03*
X0093100Y0034500D02*
D03*
X0093100Y0033500D02*
D03*
X0095500Y0033500D02*
D03*
X0095500Y0034500D02*
D03*
X0024400Y0052600D02*
D03*
Y0053700D02*
D03*
X0023200D02*
D03*
Y0052600D02*
D03*
X0022000D02*
D03*
Y0053700D02*
D03*
X0104300Y0035000D02*
D03*
Y0034000D02*
D03*
X0073500Y0035000D02*
D03*
Y0034000D02*
D03*
X0042500D02*
D03*
Y0035000D02*
D03*
X0015500Y0053000D02*
D03*
Y0051800D02*
D03*
X0016600D02*
D03*
Y0053000D02*
D03*
X0017700D02*
D03*
Y0054200D02*
D03*
X0016600D02*
D03*
Y0056600D02*
D03*
Y0055400D02*
D03*
X0017700D02*
D03*
X0094800Y0041250D02*
D03*
X0093800D02*
D03*
X0063000D02*
D03*
X0064000D02*
D03*
X0007100Y0024200D02*
D03*
X0013900Y0026100D02*
D03*
Y0027400D02*
D03*
X0033000Y0041250D02*
D03*
X0032000D02*
D03*
D44*
X0101900Y0023700D02*
D03*
X0103500D02*
D03*
X0105100D02*
D03*
X0106700D02*
D03*
X0074300D02*
D03*
X0075900D02*
D03*
X0071100D02*
D03*
X0072700D02*
D03*
X0044900D02*
D03*
X0043300D02*
D03*
X0041700D02*
D03*
X0040100D02*
D03*
D46*
X0101650Y0025500D02*
D03*
X0103350D02*
D03*
X0105250D02*
D03*
X0106950D02*
D03*
X0074450D02*
D03*
X0076150D02*
D03*
X0070850D02*
D03*
X0072550D02*
D03*
X0045150D02*
D03*
X0043450D02*
D03*
X0041550D02*
D03*
X0039850D02*
D03*
D55*
X0094250Y0017200D02*
D03*
X0092550D02*
D03*
X0094250Y0019800D02*
D03*
X0092550D02*
D03*
X0094250Y0022300D02*
D03*
X0092550D02*
D03*
X0094250Y0024900D02*
D03*
X0092550D02*
D03*
X0094250Y0027400D02*
D03*
X0092550D02*
D03*
X0094250Y0030000D02*
D03*
X0092550D02*
D03*
X0063450D02*
D03*
X0061750D02*
D03*
X0063450Y0027400D02*
D03*
X0061750D02*
D03*
X0063450Y0024900D02*
D03*
X0061750D02*
D03*
X0063450Y0022300D02*
D03*
X0061750D02*
D03*
X0063450Y0019800D02*
D03*
X0061750D02*
D03*
X0063450Y0017200D02*
D03*
X0061750D02*
D03*
X0030750Y0022300D02*
D03*
X0032450D02*
D03*
X0030750Y0019800D02*
D03*
X0032450D02*
D03*
X0030750Y0030000D02*
D03*
X0032450D02*
D03*
X0030750Y0017200D02*
D03*
X0032450D02*
D03*
X0030750Y0024900D02*
D03*
X0032450D02*
D03*
X0030750Y0027400D02*
D03*
X0032450D02*
D03*
D60*
X0016600Y0051800D02*
X0033700Y0034700D01*
Y0034500D02*
Y0034700D01*
X0017700Y0053000D02*
X0019600Y0051100D01*
X0025400D01*
X0036600Y0039900D01*
X0059800Y0039900D01*
X0024400Y0052600D02*
X0025900D01*
X0033200Y0045300D01*
X0037100Y0041400D02*
X0056200D01*
X0033200Y0045300D02*
X0037100Y0041400D01*
X0059800Y0039900D02*
X0064700Y0035000D01*
X0056200Y0041400D02*
X0057200D01*
X0062300Y0034500D02*
X0062300Y0034500D01*
X0062300Y0033500D02*
Y0034500D01*
X0037600Y0042900D02*
X0084700D01*
X0026800Y0053700D02*
X0037600Y0042900D01*
X0024400Y0053700D02*
X0026800D01*
X0038100Y0044400D02*
X0085600D01*
X0025900Y0056600D02*
X0038100Y0044400D01*
X0016600Y0056600D02*
X0025900D01*
X0084700Y0042900D02*
X0093100Y0034500D01*
X0085600Y0044400D02*
X0095500Y0034500D01*
X0064700D02*
Y0035000D01*
X0039850Y0025500D02*
Y0029050D01*
X0031300Y0033500D02*
Y0034500D01*
X0031300Y0034500D01*
X0031300Y0033500D02*
X0033200Y0031600D01*
X0037300D01*
X0039850Y0029050D01*
X0070850Y0025500D02*
Y0029050D01*
X0062300Y0033500D02*
X0064200Y0031600D01*
X0068300D01*
X0070850Y0029050D01*
X0045150Y0025500D02*
Y0027350D01*
X0033700Y0033500D02*
Y0034500D01*
Y0033500D02*
X0033700Y0033500D01*
X0034200Y0033000D01*
X0039500D01*
X0045150Y0027350D01*
X0076150Y0025500D02*
Y0027350D01*
X0064700Y0033500D02*
Y0034500D01*
Y0033500D02*
X0064700Y0033500D01*
X0065200Y0033000D01*
X0070500D01*
X0076150Y0027350D01*
X0101300Y0033000D02*
X0106950Y0027350D01*
X0096000Y0033000D02*
X0101300D01*
X0095500Y0033500D02*
X0096000Y0033000D01*
X0099100Y0031600D02*
X0101650Y0029050D01*
X0095000Y0031600D02*
X0099100D01*
X0093100Y0033500D02*
X0095000Y0031600D01*
X0093100Y0034500D02*
X0093100Y0034500D01*
X0093100Y0033500D02*
Y0034500D01*
X0095500Y0033500D02*
X0095500Y0033500D01*
X0095500Y0033500D02*
Y0034500D01*
X0106950Y0025500D02*
Y0027350D01*
X0101650Y0025500D02*
Y0029050D01*
X0098210Y0027410D02*
Y0029950D01*
Y0024870D02*
Y0027410D01*
Y0022330D02*
Y0024870D01*
Y0019790D02*
Y0022330D01*
Y0017250D02*
Y0019790D01*
X0067410Y0017250D02*
Y0019790D01*
Y0022330D01*
Y0024870D01*
Y0027410D01*
Y0029950D01*
X0036410Y0027410D02*
Y0029950D01*
Y0024870D02*
Y0027410D01*
Y0022330D02*
Y0024870D01*
Y0019790D02*
Y0022330D01*
Y0017250D02*
Y0019790D01*
D62*
X0043300Y0023700D02*
Y0025350D01*
X0103350Y0025500D02*
X0103500Y0025350D01*
Y0023700D02*
Y0025350D01*
X0105100Y0025350D02*
X0105250Y0025500D01*
X0105100Y0023700D02*
Y0025350D01*
X0074300D02*
X0074450Y0025500D01*
X0074300Y0023700D02*
Y0025350D01*
X0072550Y0025500D02*
X0072700Y0025350D01*
Y0023700D02*
Y0025350D01*
X0043300Y0025350D02*
X0043450Y0025500D01*
X0041550D02*
X0041700Y0025350D01*
Y0023700D02*
Y0025350D01*
X0101900Y0022300D02*
Y0024200D01*
X0071100Y0022300D02*
Y0024200D01*
X0040100Y0022300D02*
Y0024200D01*
X0039850Y0024450D02*
Y0025500D01*
Y0024450D02*
X0040100Y0024200D01*
X0070850Y0024450D02*
Y0025500D01*
Y0024450D02*
X0071100Y0024200D01*
X0044900Y0022300D02*
Y0023700D01*
Y0024200D01*
X0045150Y0024450D01*
Y0025500D01*
X0075900Y0022300D02*
Y0023700D01*
Y0024200D01*
X0076150Y0024450D01*
Y0025500D01*
X0103500Y0022465D02*
Y0023700D01*
Y0022465D02*
X0103665Y0022300D01*
X0101650Y0024450D02*
X0101900Y0024200D01*
X0101650Y0024450D02*
Y0025500D01*
X0106950Y0024450D02*
Y0025500D01*
X0106700Y0024200D02*
X0106950Y0024450D01*
X0106700Y0023700D02*
Y0024200D01*
Y0022300D02*
Y0023700D01*
X0094250Y0028700D02*
X0096100D01*
X0063450D02*
X0065300D01*
X0072700Y0022465D02*
X0072865Y0022300D01*
X0072700Y0022465D02*
Y0023700D01*
X0007100Y0024200D02*
X0009000Y0026100D01*
X0013900D01*
X0010200Y0023900D02*
X0013200D01*
X0015100Y0025800D01*
Y0026900D01*
X0014600Y0027400D02*
X0015100Y0026900D01*
X0013900Y0027400D02*
X0014600D01*
X0041700Y0022465D02*
Y0023700D01*
Y0022465D02*
X0041865Y0022300D01*
X0032450Y0028700D02*
X0034300D01*
D63*
X0090590Y0017250D02*
X0090640Y0017200D01*
X0092550D01*
X0090590Y0019790D02*
X0090600Y0019800D01*
X0092550D01*
X0090590Y0022330D02*
X0090620Y0022300D01*
X0092550D01*
X0090590Y0024870D02*
X0090620Y0024900D01*
X0092550D01*
X0090590Y0029950D02*
X0090640Y0030000D01*
X0092550D01*
X0090590Y0027410D02*
X0090600Y0027400D01*
X0092550D01*
X0094250Y0028700D02*
Y0030000D01*
Y0027400D02*
Y0028700D01*
Y0024900D02*
Y0027400D01*
Y0022300D02*
Y0024900D01*
Y0019800D02*
Y0022300D01*
Y0017200D02*
Y0019800D01*
X0063450Y0017200D02*
Y0019800D01*
Y0022300D01*
Y0024900D01*
Y0027400D01*
Y0028700D01*
Y0030000D01*
X0059800Y0027400D02*
X0061750D01*
X0059790Y0027410D02*
X0059800Y0027400D01*
X0059840Y0030000D02*
X0061750D01*
X0059790Y0029950D02*
X0059840Y0030000D01*
X0059820Y0024900D02*
X0061750D01*
X0059790Y0024870D02*
X0059820Y0024900D01*
X0059820Y0022300D02*
X0061750D01*
X0059790Y0022330D02*
X0059820Y0022300D01*
X0059800Y0019800D02*
X0061750D01*
X0059790Y0019790D02*
X0059800Y0019800D01*
X0059840Y0017200D02*
X0061750D01*
X0059790Y0017250D02*
X0059840Y0017200D01*
X0028790Y0017250D02*
X0028840Y0017200D01*
X0030750D01*
X0028790Y0019790D02*
X0028800Y0019800D01*
X0030750D01*
X0028790Y0022330D02*
X0028820Y0022300D01*
X0030750D01*
X0028790Y0024870D02*
X0028820Y0024900D01*
X0030750D01*
X0028790Y0029950D02*
X0028840Y0030000D01*
X0030750D01*
X0028790Y0027410D02*
X0028800Y0027400D01*
X0030750D01*
X0032450Y0028700D02*
Y0030000D01*
Y0027400D02*
Y0028700D01*
Y0024900D02*
Y0027400D01*
Y0022300D02*
Y0024900D01*
Y0019800D02*
Y0022300D01*
Y0017200D02*
Y0019800D01*
D66*
X0090590Y0029950D02*
D03*
Y0027410D02*
D03*
Y0024870D02*
D03*
Y0022330D02*
D03*
Y0019790D02*
D03*
Y0017250D02*
D03*
X0098210D02*
D03*
Y0019790D02*
D03*
Y0022330D02*
D03*
Y0024870D02*
D03*
Y0027410D02*
D03*
Y0029950D02*
D03*
X0059790D02*
D03*
Y0027410D02*
D03*
Y0024870D02*
D03*
Y0022330D02*
D03*
Y0019790D02*
D03*
Y0017250D02*
D03*
X0067410D02*
D03*
Y0019790D02*
D03*
Y0022330D02*
D03*
Y0024870D02*
D03*
Y0027410D02*
D03*
Y0029950D02*
D03*
X0036410D02*
D03*
Y0027410D02*
D03*
Y0024870D02*
D03*
Y0022330D02*
D03*
Y0019790D02*
D03*
Y0017250D02*
D03*
X0028790D02*
D03*
Y0019790D02*
D03*
Y0022330D02*
D03*
Y0024870D02*
D03*
Y0027410D02*
D03*
Y0029950D02*
D03*
D67*
X0096800Y0055500D02*
D03*
X0091800D02*
D03*
X0101600Y0004500D02*
D03*
X0106600D02*
D03*
X0111800Y0055500D02*
D03*
X0106800D02*
D03*
X0101800D02*
D03*
X0081000D02*
D03*
X0076000D02*
D03*
X0071000D02*
D03*
X0070800Y0004500D02*
D03*
X0075800D02*
D03*
X0066000Y0055500D02*
D03*
X0061000D02*
D03*
X0040000D02*
D03*
X0045000D02*
D03*
X0050000D02*
D03*
X0030000D02*
D03*
X0035000D02*
D03*
X0044800Y0004500D02*
D03*
X0039800D02*
D03*
D68*
X0004200Y0023900D02*
D03*
Y0021400D02*
D03*
Y0018900D02*
D03*
X0010200Y0023900D02*
D03*
Y0021400D02*
D03*
Y0018900D02*
D03*
D69*
X0007439Y0012573D02*
D03*
X0013589D02*
D03*
D70*
X0010739Y0007573D02*
D03*
D71*
X0004000Y0004000D02*
D03*
Y0056000D02*
D03*
X0118000D02*
D03*
Y0004000D02*
D03*
D72*
X0040100Y0022300D02*
D03*
X0071100D02*
D03*
X0044900D02*
D03*
X0075900D02*
D03*
X0103665D02*
D03*
X0101900D02*
D03*
X0106700D02*
D03*
X0096100Y0028700D02*
D03*
X0065300D02*
D03*
X0072865Y0022300D02*
D03*
X0041865D02*
D03*
X0034300Y0028700D02*
D03*
M02*
