G04*
G04 #@! TF.GenerationSoftware,Altium Limited,Altium Designer,18.0.12 (696)*
G04*
G04 Layer_Color=32896*
%FSAX43Y43*%
%MOMM*%
G71*
G01*
G75*
%ADD12C,0.200*%
%ADD14C,0.254*%
D12*
X0093200Y0017600D02*
X0093600D01*
X0093200Y0016800D02*
X0093600D01*
X0093200Y0020200D02*
X0093600D01*
X0093200Y0019400D02*
X0093600D01*
X0093200Y0022700D02*
X0093600D01*
X0093200Y0021900D02*
X0093600D01*
X0093200Y0025300D02*
X0093600D01*
X0093200Y0024500D02*
X0093600D01*
X0093200Y0027800D02*
X0093600D01*
X0093200Y0027000D02*
X0093600D01*
X0093200Y0030400D02*
X0093600D01*
X0093200Y0029600D02*
X0093600D01*
X0102700Y0023100D02*
Y0024300D01*
X0102500Y0024700D02*
Y0026300D01*
X0105900Y0023100D02*
Y0024300D01*
X0106100Y0024700D02*
Y0026300D01*
X0075300Y0024700D02*
Y0026300D01*
X0075100Y0023100D02*
Y0024300D01*
X0071700Y0024700D02*
Y0026300D01*
X0071900Y0023100D02*
Y0024300D01*
X0062400Y0030400D02*
X0062800D01*
X0062400Y0029600D02*
X0062800D01*
X0062400Y0027800D02*
X0062800D01*
X0062400Y0027000D02*
X0062800D01*
X0062400Y0025300D02*
X0062800D01*
X0062400Y0024500D02*
X0062800D01*
X0062400Y0022700D02*
X0062800D01*
X0062400Y0021900D02*
X0062800D01*
X0062400Y0020200D02*
X0062800D01*
X0062400Y0019400D02*
X0062800D01*
X0062400Y0017600D02*
X0062800D01*
X0062400Y0016800D02*
X0062800D01*
X0031400Y0021900D02*
X0031800D01*
X0031400Y0022700D02*
X0031800D01*
X0031400Y0019400D02*
X0031800D01*
X0031400Y0020200D02*
X0031800D01*
X0031400Y0029600D02*
X0031800D01*
X0031400Y0030400D02*
X0031800D01*
X0031400Y0016800D02*
X0031800D01*
X0031400Y0017600D02*
X0031800D01*
X0031400Y0024500D02*
X0031800D01*
X0031400Y0025300D02*
X0031800D01*
X0031400Y0027000D02*
X0031800D01*
X0031400Y0027800D02*
X0031800D01*
X0044100Y0023100D02*
Y0024300D01*
X0044300Y0024700D02*
Y0026300D01*
X0040900Y0023100D02*
Y0024300D01*
X0040700Y0024700D02*
Y0026300D01*
D14*
X0097000Y0016700D02*
Y0017700D01*
X0096500D01*
X0096334Y0017533D01*
Y0017200D01*
X0096500Y0017033D01*
X0097000D01*
X0096667D02*
X0096334Y0016700D01*
X0095334D02*
X0096000D01*
X0095334Y0017366D01*
Y0017533D01*
X0095500Y0017700D01*
X0095834D01*
X0096000Y0017533D01*
X0094501Y0016700D02*
Y0017700D01*
X0095001Y0017200D01*
X0094334D01*
X0097000Y0019300D02*
Y0020300D01*
X0096500D01*
X0096334Y0020133D01*
Y0019800D01*
X0096500Y0019633D01*
X0097000D01*
X0096667D02*
X0096334Y0019300D01*
X0095334D02*
X0096000D01*
X0095334Y0019966D01*
Y0020133D01*
X0095500Y0020300D01*
X0095834D01*
X0096000Y0020133D01*
X0095001D02*
X0094834Y0020300D01*
X0094501D01*
X0094334Y0020133D01*
Y0019966D01*
X0094501Y0019800D01*
X0094667D01*
X0094501D01*
X0094334Y0019633D01*
Y0019467D01*
X0094501Y0019300D01*
X0094834D01*
X0095001Y0019467D01*
X0097000Y0021800D02*
Y0022800D01*
X0096500D01*
X0096334Y0022633D01*
Y0022300D01*
X0096500Y0022133D01*
X0097000D01*
X0096667D02*
X0096334Y0021800D01*
X0095334D02*
X0096000D01*
X0095334Y0022466D01*
Y0022633D01*
X0095500Y0022800D01*
X0095834D01*
X0096000Y0022633D01*
X0094334Y0021800D02*
X0095001D01*
X0094334Y0022466D01*
Y0022633D01*
X0094501Y0022800D01*
X0094834D01*
X0095001Y0022633D01*
X0097000Y0024400D02*
Y0025400D01*
X0096500D01*
X0096334Y0025233D01*
Y0024900D01*
X0096500Y0024733D01*
X0097000D01*
X0096667D02*
X0096334Y0024400D01*
X0095334D02*
X0096000D01*
X0095334Y0025066D01*
Y0025233D01*
X0095500Y0025400D01*
X0095834D01*
X0096000Y0025233D01*
X0095001Y0024400D02*
X0094667D01*
X0094834D01*
Y0025400D01*
X0095001Y0025233D01*
X0097000Y0026900D02*
Y0027900D01*
X0096500D01*
X0096334Y0027733D01*
Y0027400D01*
X0096500Y0027233D01*
X0097000D01*
X0096667D02*
X0096334Y0026900D01*
X0095334D02*
X0096000D01*
X0095334Y0027566D01*
Y0027733D01*
X0095500Y0027900D01*
X0095834D01*
X0096000Y0027733D01*
X0095001D02*
X0094834Y0027900D01*
X0094501D01*
X0094334Y0027733D01*
Y0027067D01*
X0094501Y0026900D01*
X0094834D01*
X0095001Y0027067D01*
Y0027733D01*
X0097000Y0029500D02*
Y0030500D01*
X0096500D01*
X0096334Y0030333D01*
Y0030000D01*
X0096500Y0029833D01*
X0097000D01*
X0096667D02*
X0096334Y0029500D01*
X0096000D02*
X0095667D01*
X0095834D01*
Y0030500D01*
X0096000Y0030333D01*
X0095167Y0029667D02*
X0095001Y0029500D01*
X0094667D01*
X0094501Y0029667D01*
Y0030333D01*
X0094667Y0030500D01*
X0095001D01*
X0095167Y0030333D01*
Y0030166D01*
X0095001Y0030000D01*
X0094501D01*
X0103234Y0027633D02*
X0103400Y0027800D01*
X0103733D01*
X0103900Y0027633D01*
Y0026967D01*
X0103733Y0026800D01*
X0103400D01*
X0103234Y0026967D01*
X0102400Y0026800D02*
Y0027800D01*
X0102900Y0027300D01*
X0102234D01*
X0101901Y0026800D02*
X0101567D01*
X0101734D01*
Y0027800D01*
X0101901Y0027633D01*
X0103134Y0029233D02*
X0103300Y0029400D01*
X0103633D01*
X0103800Y0029233D01*
Y0028567D01*
X0103633Y0028400D01*
X0103300D01*
X0103134Y0028567D01*
X0102300Y0028400D02*
Y0029400D01*
X0102800Y0028900D01*
X0102134D01*
X0101801Y0029233D02*
X0101634Y0029400D01*
X0101301D01*
X0101134Y0029233D01*
Y0028567D01*
X0101301Y0028400D01*
X0101634D01*
X0101801Y0028567D01*
Y0029233D01*
X0106434Y0027633D02*
X0106600Y0027800D01*
X0106933D01*
X0107100Y0027633D01*
Y0026967D01*
X0106933Y0026800D01*
X0106600D01*
X0106434Y0026967D01*
X0106100Y0027633D02*
X0105934Y0027800D01*
X0105600D01*
X0105434Y0027633D01*
Y0027466D01*
X0105600Y0027300D01*
X0105767D01*
X0105600D01*
X0105434Y0027133D01*
Y0026967D01*
X0105600Y0026800D01*
X0105934D01*
X0106100Y0026967D01*
X0104434Y0027800D02*
X0104767Y0027633D01*
X0105101Y0027300D01*
Y0026967D01*
X0104934Y0026800D01*
X0104601D01*
X0104434Y0026967D01*
Y0027133D01*
X0104601Y0027300D01*
X0105101D01*
X0106434Y0029233D02*
X0106600Y0029400D01*
X0106933D01*
X0107100Y0029233D01*
Y0028567D01*
X0106933Y0028400D01*
X0106600D01*
X0106434Y0028567D01*
X0106100Y0029233D02*
X0105934Y0029400D01*
X0105600D01*
X0105434Y0029233D01*
Y0029066D01*
X0105600Y0028900D01*
X0105767D01*
X0105600D01*
X0105434Y0028733D01*
Y0028567D01*
X0105600Y0028400D01*
X0105934D01*
X0106100Y0028567D01*
X0104434Y0029400D02*
X0105101D01*
Y0028900D01*
X0104767Y0029066D01*
X0104601D01*
X0104434Y0028900D01*
Y0028567D01*
X0104601Y0028400D01*
X0104934D01*
X0105101Y0028567D01*
X0075534Y0029233D02*
X0075700Y0029400D01*
X0076033D01*
X0076200Y0029233D01*
Y0028567D01*
X0076033Y0028400D01*
X0075700D01*
X0075534Y0028567D01*
X0074534Y0028400D02*
X0075200D01*
X0074534Y0029066D01*
Y0029233D01*
X0074700Y0029400D01*
X0075034D01*
X0075200Y0029233D01*
X0074201Y0028400D02*
X0073867D01*
X0074034D01*
Y0029400D01*
X0074201Y0029233D01*
X0075534Y0027633D02*
X0075700Y0027800D01*
X0076033D01*
X0076200Y0027633D01*
Y0026967D01*
X0076033Y0026800D01*
X0075700D01*
X0075534Y0026967D01*
X0074534Y0026800D02*
X0075200D01*
X0074534Y0027466D01*
Y0027633D01*
X0074700Y0027800D01*
X0075034D01*
X0075200Y0027633D01*
X0073534Y0026800D02*
X0074201D01*
X0073534Y0027466D01*
Y0027633D01*
X0073701Y0027800D01*
X0074034D01*
X0074201Y0027633D01*
X0072534Y0029233D02*
X0072700Y0029400D01*
X0073033D01*
X0073200Y0029233D01*
Y0028567D01*
X0073033Y0028400D01*
X0072700D01*
X0072534Y0028567D01*
X0071534Y0028400D02*
X0072200D01*
X0071534Y0029066D01*
Y0029233D01*
X0071700Y0029400D01*
X0072034D01*
X0072200Y0029233D01*
X0070534Y0029400D02*
X0070867Y0029233D01*
X0071201Y0028900D01*
Y0028567D01*
X0071034Y0028400D01*
X0070701D01*
X0070534Y0028567D01*
Y0028733D01*
X0070701Y0028900D01*
X0071201D01*
X0072534Y0027633D02*
X0072700Y0027800D01*
X0073033D01*
X0073200Y0027633D01*
Y0026967D01*
X0073033Y0026800D01*
X0072700D01*
X0072534Y0026967D01*
X0071534Y0026800D02*
X0072200D01*
X0071534Y0027466D01*
Y0027633D01*
X0071700Y0027800D01*
X0072034D01*
X0072200Y0027633D01*
X0071201Y0027800D02*
X0070534D01*
Y0027633D01*
X0071201Y0026967D01*
Y0026800D01*
X0066200Y0029500D02*
Y0030500D01*
X0065700D01*
X0065534Y0030333D01*
Y0030000D01*
X0065700Y0029833D01*
X0066200D01*
X0065867D02*
X0065534Y0029500D01*
X0065200D02*
X0064867D01*
X0065034D01*
Y0030500D01*
X0065200Y0030333D01*
X0064367Y0029500D02*
X0064034D01*
X0064201D01*
Y0030500D01*
X0064367Y0030333D01*
X0066200Y0026900D02*
Y0027900D01*
X0065700D01*
X0065534Y0027733D01*
Y0027400D01*
X0065700Y0027233D01*
X0066200D01*
X0065867D02*
X0065534Y0026900D01*
X0065200D02*
X0064867D01*
X0065034D01*
Y0027900D01*
X0065200Y0027733D01*
X0063701Y0026900D02*
X0064367D01*
X0063701Y0027566D01*
Y0027733D01*
X0063867Y0027900D01*
X0064201D01*
X0064367Y0027733D01*
X0066200Y0024400D02*
Y0025400D01*
X0065700D01*
X0065534Y0025233D01*
Y0024900D01*
X0065700Y0024733D01*
X0066200D01*
X0065867D02*
X0065534Y0024400D01*
X0065200D02*
X0064867D01*
X0065034D01*
Y0025400D01*
X0065200Y0025233D01*
X0064367D02*
X0064201Y0025400D01*
X0063867D01*
X0063701Y0025233D01*
Y0025066D01*
X0063867Y0024900D01*
X0064034D01*
X0063867D01*
X0063701Y0024733D01*
Y0024567D01*
X0063867Y0024400D01*
X0064201D01*
X0064367Y0024567D01*
X0066200Y0021800D02*
Y0022800D01*
X0065700D01*
X0065534Y0022633D01*
Y0022300D01*
X0065700Y0022133D01*
X0066200D01*
X0065867D02*
X0065534Y0021800D01*
X0065200D02*
X0064867D01*
X0065034D01*
Y0022800D01*
X0065200Y0022633D01*
X0063867Y0021800D02*
Y0022800D01*
X0064367Y0022300D01*
X0063701D01*
X0066200Y0019300D02*
Y0020300D01*
X0065700D01*
X0065534Y0020133D01*
Y0019800D01*
X0065700Y0019633D01*
X0066200D01*
X0065867D02*
X0065534Y0019300D01*
X0065200D02*
X0064867D01*
X0065034D01*
Y0020300D01*
X0065200Y0020133D01*
X0063701Y0020300D02*
X0064367D01*
Y0019800D01*
X0064034Y0019966D01*
X0063867D01*
X0063701Y0019800D01*
Y0019467D01*
X0063867Y0019300D01*
X0064201D01*
X0064367Y0019467D01*
X0066200Y0016700D02*
Y0017700D01*
X0065700D01*
X0065534Y0017533D01*
Y0017200D01*
X0065700Y0017033D01*
X0066200D01*
X0065867D02*
X0065534Y0016700D01*
X0065200D02*
X0064867D01*
X0065034D01*
Y0017700D01*
X0065200Y0017533D01*
X0063701Y0017700D02*
X0064034Y0017533D01*
X0064367Y0017200D01*
Y0016867D01*
X0064201Y0016700D01*
X0063867D01*
X0063701Y0016867D01*
Y0017033D01*
X0063867Y0017200D01*
X0064367D01*
X0035200Y0016700D02*
Y0017700D01*
X0034700D01*
X0034534Y0017533D01*
Y0017200D01*
X0034700Y0017033D01*
X0035200D01*
X0034867D02*
X0034534Y0016700D01*
X0034200Y0017533D02*
X0034034Y0017700D01*
X0033700D01*
X0033534Y0017533D01*
Y0017366D01*
X0033700Y0017200D01*
X0033534Y0017033D01*
Y0016867D01*
X0033700Y0016700D01*
X0034034D01*
X0034200Y0016867D01*
Y0017033D01*
X0034034Y0017200D01*
X0034200Y0017366D01*
Y0017533D01*
X0034034Y0017200D02*
X0033700D01*
X0035200Y0019300D02*
Y0020300D01*
X0034700D01*
X0034534Y0020133D01*
Y0019800D01*
X0034700Y0019633D01*
X0035200D01*
X0034867D02*
X0034534Y0019300D01*
X0034200Y0020300D02*
X0033534D01*
Y0020133D01*
X0034200Y0019467D01*
Y0019300D01*
X0035200Y0021800D02*
Y0022800D01*
X0034700D01*
X0034534Y0022633D01*
Y0022300D01*
X0034700Y0022133D01*
X0035200D01*
X0034867D02*
X0034534Y0021800D01*
X0033534Y0022800D02*
X0033867Y0022633D01*
X0034200Y0022300D01*
Y0021967D01*
X0034034Y0021800D01*
X0033700D01*
X0033534Y0021967D01*
Y0022133D01*
X0033700Y0022300D01*
X0034200D01*
X0035200Y0024400D02*
Y0025400D01*
X0034700D01*
X0034534Y0025233D01*
Y0024900D01*
X0034700Y0024733D01*
X0035200D01*
X0034867D02*
X0034534Y0024400D01*
X0033534Y0025400D02*
X0034200D01*
Y0024900D01*
X0033867Y0025066D01*
X0033700D01*
X0033534Y0024900D01*
Y0024567D01*
X0033700Y0024400D01*
X0034034D01*
X0034200Y0024567D01*
X0035200Y0026900D02*
Y0027900D01*
X0034700D01*
X0034534Y0027733D01*
Y0027400D01*
X0034700Y0027233D01*
X0035200D01*
X0034867D02*
X0034534Y0026900D01*
X0033700D02*
Y0027900D01*
X0034200Y0027400D01*
X0033534D01*
X0035200Y0029500D02*
Y0030500D01*
X0034700D01*
X0034534Y0030333D01*
Y0030000D01*
X0034700Y0029833D01*
X0035200D01*
X0034867D02*
X0034534Y0029500D01*
X0034200Y0030333D02*
X0034034Y0030500D01*
X0033700D01*
X0033534Y0030333D01*
Y0030166D01*
X0033700Y0030000D01*
X0033867D01*
X0033700D01*
X0033534Y0029833D01*
Y0029667D01*
X0033700Y0029500D01*
X0034034D01*
X0034200Y0029667D01*
X0041534Y0027633D02*
X0041700Y0027800D01*
X0042033D01*
X0042200Y0027633D01*
Y0026967D01*
X0042033Y0026800D01*
X0041700D01*
X0041534Y0026967D01*
X0041200Y0026800D02*
X0040867D01*
X0041034D01*
Y0027800D01*
X0041200Y0027633D01*
X0040367D02*
X0040201Y0027800D01*
X0039867D01*
X0039701Y0027633D01*
Y0027466D01*
X0039867Y0027300D01*
X0040034D01*
X0039867D01*
X0039701Y0027133D01*
Y0026967D01*
X0039867Y0026800D01*
X0040201D01*
X0040367Y0026967D01*
X0041534Y0029233D02*
X0041700Y0029400D01*
X0042033D01*
X0042200Y0029233D01*
Y0028567D01*
X0042033Y0028400D01*
X0041700D01*
X0041534Y0028567D01*
X0041200Y0028400D02*
X0040867D01*
X0041034D01*
Y0029400D01*
X0041200Y0029233D01*
X0039701Y0028400D02*
X0040367D01*
X0039701Y0029066D01*
Y0029233D01*
X0039867Y0029400D01*
X0040201D01*
X0040367Y0029233D01*
X0044534Y0027633D02*
X0044700Y0027800D01*
X0045033D01*
X0045200Y0027633D01*
Y0026967D01*
X0045033Y0026800D01*
X0044700D01*
X0044534Y0026967D01*
X0044200Y0027633D02*
X0044034Y0027800D01*
X0043700D01*
X0043534Y0027633D01*
Y0027466D01*
X0043700Y0027300D01*
X0043534Y0027133D01*
Y0026967D01*
X0043700Y0026800D01*
X0044034D01*
X0044200Y0026967D01*
Y0027133D01*
X0044034Y0027300D01*
X0044200Y0027466D01*
Y0027633D01*
X0044034Y0027300D02*
X0043700D01*
X0044534Y0029233D02*
X0044700Y0029400D01*
X0045033D01*
X0045200Y0029233D01*
Y0028567D01*
X0045033Y0028400D01*
X0044700D01*
X0044534Y0028567D01*
X0044200Y0029400D02*
X0043534D01*
Y0029233D01*
X0044200Y0028567D01*
Y0028400D01*
M02*
